<svg width="392" height="846" viewBox="0 0 392 846" fill="none" xmlns="http://www.w3.org/2000/svg">
<path fill-rule="evenodd" clip-rule="evenodd" d="M80.442 1C83.578 1 86.186 3.4124 86.541 6.5281C87.083 11.2843 88.026 17.7557 89.339 20.2106C91.518 24.2846 94.715 27.482 98.789 29.6608C102.864 31.8397 107.235 33 116.399 33H275.601C284.765 33 289.137 31.8397 293.211 29.6608C297.285 27.482 300.482 24.2846 302.661 20.2106C303.974 17.7557 304.917 11.2843 305.459 6.5281C305.814 3.4124 308.422 1 311.558 1H338.44C356.716 1 363.344 2.9029 370.025 6.4762C376.707 10.0495 381.95 15.2932 385.524 21.9747C389.097 28.6561 391 35.2835 391 53.56V792.44C391 810.716 389.097 817.344 385.524 824.025C381.95 830.707 376.707 835.951 370.025 839.524C363.344 843.097 356.716 845 338.44 845H53.56C35.2835 845 28.6561 843.097 21.9747 839.524C15.2932 835.951 10.0495 830.707 6.4762 824.025C2.9029 817.344 1 810.716 1 792.44V53.56C1 35.2835 2.9029 28.6561 6.4762 21.9747C10.0495 15.2932 15.2932 10.0495 21.9747 6.4762C28.6561 2.9029 35.2835 1 53.56 1H80.442Z" fill="white"/>
<path fill-rule="evenodd" clip-rule="evenodd" d="M80.442 1C83.578 1 86.186 3.4124 86.541 6.5281C87.083 11.2843 88.026 17.7557 89.339 20.2106C91.518 24.2846 94.715 27.482 98.789 29.6608C102.864 31.8397 107.235 33 116.399 33H275.601C284.765 33 289.137 31.8397 293.211 29.6608C297.285 27.482 300.482 24.2846 302.661 20.2106C303.974 17.7557 304.917 11.2843 305.459 6.5281C305.814 3.4124 308.422 1 311.558 1H338.44C356.716 1 363.344 2.9029 370.025 6.4762C376.707 10.0495 381.95 15.2932 385.524 21.9747C389.097 28.6561 391 35.2835 391 53.56V792.44C391 810.716 389.097 817.344 385.524 824.025C381.95 830.707 376.707 835.951 370.025 839.524C363.344 843.097 356.716 845 338.44 845H53.56C35.2835 845 28.6561 843.097 21.9747 839.524C15.2932 835.951 10.0495 830.707 6.4762 824.025C2.9029 817.344 1 810.716 1 792.44V53.56C1 35.2835 2.9029 28.6561 6.4762 21.9747C10.0495 15.2932 15.2932 10.0495 21.9747 6.4762C28.6561 2.9029 35.2835 1 53.56 1H80.442Z" stroke="white"/>
</svg>
