<svg width="20" height="22" fill="none" xmlns="http://www.w3.org/2000/svg"><path fill-rule="evenodd" clip-rule="evenodd" d="M.44.438C.188.698.037 1.109.037 1.63v18.806c0 .522.151.932.403 1.193l.063.062 10.666-10.54v-.249L.503.363.44.438z" fill="url(#paint0_linear)"></path><path fill-rule="evenodd" clip-rule="evenodd" d="M14.717 14.666L11.17 11.15V10.9l3.56-3.517.075.05 4.214 2.361c1.208.671 1.208 1.777 0 2.461l-4.214 2.362-.088.05z" fill="url(#paint1_linear)"></path><path fill-rule="evenodd" clip-rule="evenodd" d="M14.804 14.62l-3.635-3.593L.439 21.63c.39.41 1.057.472 1.787.05l12.578-7.06z" fill="url(#paint2_linear)"></path><path fill-rule="evenodd" clip-rule="evenodd" d="M14.804 7.445L2.226.385C1.483-.025.829.025.439.435l10.73 10.602 3.635-3.592z" fill="url(#paint3_linear)"></path><path opacity=".2" fill-rule="evenodd" clip-rule="evenodd" d="M14.716 14.543l-12.49 7.01c-.705.398-1.321.373-1.724.013l-.063.062.063.062c.403.36 1.032.385 1.724-.013l12.578-7.06-.088-.074z" fill="#000"></path><path opacity=".12" fill-rule="evenodd" clip-rule="evenodd" d="M14.716 14.545l4.29-2.411c.553-.311.855-.697.905-1.107 0 .448-.302.895-.905 1.23l-4.214 2.362-.076-.074zM.037 20.312c0 .522.151.932.403 1.193l.063.063-.063.062c-.252-.261-.403-.672-.403-1.194v-.124z" fill="#000"></path><path opacity=".25" fill-rule="evenodd" clip-rule="evenodd" d="M2.226.498l16.78 9.422c.54.31.855.696.905 1.106 0-.447-.302-.895-.905-1.23L2.226.373C1.018-.297.037.262.037 1.617v.124c0-1.355.981-1.914 2.189-1.243z" fill="#fff"></path><defs><linearGradient id="paint0_linear" x1="6.488" y1="-12.412" x2="-10.564" y2="-7.822" gradientUnits="userSpaceOnUse"><stop stop-color="#00A0FF"></stop><stop offset=".007" stop-color="#00A1FF"></stop><stop offset=".26" stop-color="#00BEFF"></stop><stop offset=".512" stop-color="#00D2FF"></stop><stop offset=".76" stop-color="#00DFFF"></stop><stop offset="1" stop-color="#00E3FF"></stop></linearGradient><linearGradient id="paint1_linear" x1="20.576" y1="2.367" x2="-.251" y2="2.367" gradientUnits="userSpaceOnUse"><stop stop-color="#FFE000"></stop><stop offset=".409" stop-color="#FFBD00"></stop><stop offset=".775" stop-color="orange"></stop><stop offset="1" stop-color="#FF9C00"></stop></linearGradient><linearGradient id="paint2_linear" x1=".119" y1="5.529" x2="-13.352" y2="28.476" gradientUnits="userSpaceOnUse"><stop stop-color="#FF3A44"></stop><stop offset="1" stop-color="#C31162"></stop></linearGradient><linearGradient id="paint3_linear" x1="-7.939" y1="-2.503" x2="-1.928" y2="7.745" gradientUnits="userSpaceOnUse"><stop stop-color="#32A071"></stop><stop offset=".069" stop-color="#2DA771"></stop><stop offset=".476" stop-color="#15CF74"></stop><stop offset=".801" stop-color="#06E775"></stop><stop offset="1" stop-color="#00F076"></stop></linearGradient></defs></svg>