<svg width="20" height="24" fill="none" xmlns="http://www.w3.org/2000/svg"><path fill-rule="evenodd" clip-rule="evenodd" d="M13.7 3.838C14.566 2.801 15 1.68 15 .48c0-.16-.008-.32-.026-.48-.602.032-1.242.216-1.92.55-.678.338-1.238.763-1.678 1.273C10.495 2.831 10 4.065 10 5.217c0 .16.01.31.027.455 1.369.112 2.631-.6 3.675-1.834zm4.604 17.185c.493-.71.918-1.481 1.277-2.32.148-.355.287-.726.419-1.112a5.403 5.403 0 01-1.644-1.09c-1.08-1.012-1.63-2.287-1.646-3.818-.018-1.966.866-3.499 2.652-4.593-.998-1.434-2.498-2.23-4.496-2.393-.737-.063-1.637.097-2.704.485-1.127.419-1.792.628-1.988.628-.263 0-.862-.18-1.794-.533-.935-.352-1.687-.532-2.261-.532a5.771 5.771 0 00-2.924.834A6.091 6.091 0 001.033 8.79C.343 9.953 0 11.34 0 12.948c0 1.404.255 2.855.764 4.352.475 1.387 1.081 2.603 1.819 3.652.687.982 1.26 1.676 1.72 2.08.718.676 1.438.997 2.16.966.476-.016 1.097-.18 1.868-.496.77-.314 1.49-.47 2.162-.47.64 0 1.34.156 2.101.47.76.315 1.412.47 1.952.47.754-.017 1.457-.33 2.114-.94.423-.372.973-1.041 1.644-2.009z" fill="currentColor"></path></svg>