<svg width="164" height="104" viewBox="0 0 164 104" fill="none" xmlns="http://www.w3.org/2000/svg">
<path fill-rule="evenodd" clip-rule="evenodd" d="M43.8296 87.0373C43.4456 89.9473 44.7996 92.6353 46.5256 95.1923C48.5216 98.1493 51.3236 99.3203 54.8076 98.6603C56.0436 98.4253 57.2826 97.9953 58.4076 97.4293C61.2976 95.9753 62.2876 93.1793 61.1426 90.1693C60.3316 88.0353 58.9476 86.2903 57.4336 84.6383C54.6046 81.5533 51.3116 79.0513 47.7006 76.9553C47.5636 76.8763 47.4046 76.8363 47.2626 76.7653C46.6326 76.4473 46.0036 76.6833 45.7506 77.4003C44.6876 80.4163 43.7476 83.4613 43.8296 87.0373V87.0373ZM108.487 77.5193C110.284 77.5893 111.996 77.1813 113.655 76.5953C114.391 76.3353 115.094 75.8913 115.706 75.3983C117.214 74.1873 117.613 72.5093 116.969 70.6833C116.15 68.3633 114.829 66.4123 112.836 64.9433C111.809 64.1853 110.713 63.5043 109.758 62.6633C104.299 57.8623 97.7806 55.4723 90.7516 54.2273C90.4446 54.1733 90.0906 54.1533 89.8086 54.2543C89.5386 54.3503 89.1376 54.6253 89.1346 54.8263C89.1216 55.9313 89.0636 57.0693 89.2926 58.1383C90.6866 64.6433 94.2966 69.8153 99.2326 74.1133C101.862 76.4023 105.063 77.3133 108.487 77.5193V77.5193ZM143.372 6.6293C143.372 5.1933 143.299 3.7533 143.393 2.3233C143.484 0.933298 145.226 -0.227701 146.579 0.140299C147.186 0.305299 147.824 0.521299 148.329 0.882299C153.012 4.2333 157.662 7.6423 161.708 11.7633C164.627 14.7353 164.539 16.0223 161.214 18.7943C157.284 22.0703 153.229 25.1963 149.218 28.3733C148.849 28.6663 148.407 28.8773 147.981 29.0873C146.969 29.5863 145.544 28.9103 145.362 27.7953C145.078 26.0593 144.862 24.3123 144.63 22.5683C144.567 22.0933 144.536 21.6133 144.516 21.1343C144.326 16.6993 144.346 16.6403 139.888 16.4973C131.817 16.2403 123.934 17.1233 116.296 19.8863C112.963 21.0933 109.933 22.8033 106.925 24.6563C101.181 28.1933 97.0616 33.2033 93.4236 38.7243C91.4726 41.6853 89.8816 44.7953 89.1186 48.2833C88.9366 49.1143 89.3926 49.9073 90.1706 50.1783C90.4726 50.2833 90.7666 50.4223 91.0746 50.4933C91.5416 50.6013 92.0186 50.6613 92.4906 50.7473C99.5456 52.0453 105.903 54.8733 111.496 59.3913C112.864 60.4973 114.289 61.5343 115.64 62.6593C117.646 64.3313 119.055 66.4423 120.021 68.8643C121.72 73.1193 120.663 76.3673 116.88 78.7703C113.106 81.1683 108.996 81.2503 104.834 80.4663C101.322 79.8043 98.2156 78.2093 95.5746 75.7073C90.6756 71.0653 87.3936 65.5173 85.8776 58.9363C85.8056 58.6243 85.7756 58.3043 85.7126 57.9903C84.7086 53.0433 85.3436 52.9483 79.4466 53.2473C66.6286 53.8973 56.5326 59.5583 49.3006 70.2123C48.9456 70.7353 48.6856 71.3273 48.4096 71.8993C48.1536 72.4293 48.4866 72.8133 48.8156 73.1553C49.0326 73.3823 49.2966 73.5923 49.5786 73.7233C53.5756 75.5753 56.6326 78.6453 59.8216 81.5523C61.6236 83.1943 62.9886 85.1383 64.1046 87.2833C64.7796 88.5803 65.1516 89.9483 65.2336 91.4123C65.4846 95.8853 63.6136 99.1873 59.5436 101.038C56.4416 102.449 53.2596 103.331 49.8076 102.064C47.4736 101.207 45.5586 99.8633 44.0446 97.9343C40.8246 93.8313 39.4046 89.1873 40.2556 84.0103C40.7206 81.1773 41.5026 78.3973 42.1386 75.5933C42.2916 74.9153 41.9806 74.2983 41.3306 74.0893C40.4206 73.7953 39.5106 73.4063 38.5736 73.3073C32.6366 72.6743 27.1656 73.6773 22.4016 77.6543C17.4336 81.8033 13.2816 86.6143 9.96263 92.1443C8.31863 94.8843 6.81863 97.7103 5.26263 100.503C4.54463 101.79 3.67263 102.912 2.20063 103.384C1.72363 103.537 1.23963 103.472 0.943634 103.01C0.779634 102.753 0.635634 102.438 0.621634 102.143C0.605634 101.841 0.708634 101.503 0.848634 101.225C4.59663 93.7833 8.64463 86.5373 14.2226 80.2543C16.7896 77.3613 19.6696 74.8653 22.9276 72.7793C25.1216 71.3743 27.5226 70.5973 30.0446 70.0503C34.1976 69.1483 38.3126 69.3113 42.3796 70.4273C43.6746 70.7823 44.5346 70.5133 45.2256 69.4153C47.4556 65.8763 50.0556 62.6543 53.2636 59.9393C58.8496 55.2113 65.1046 51.8173 72.2986 50.2583C74.9756 49.6783 77.6966 49.6613 80.4156 49.6123C81.5346 49.5923 82.6546 49.6323 83.7736 49.5963C84.6836 49.5663 85.2196 48.9693 85.5026 48.1793C85.7166 47.5803 85.7836 46.9323 85.9596 46.3183C86.6216 44.0013 87.4666 41.7323 88.7926 39.7293C91.0846 36.2673 93.5266 32.9033 95.9256 29.5123C96.2926 28.9933 96.7256 28.5043 97.1966 28.0773C102.441 23.3253 108.026 19.1183 114.809 16.7293C120.581 14.6963 126.477 13.4083 132.611 13.2323C135.488 13.1493 138.363 12.9713 141.236 12.7963C142.99 12.6903 143.553 12.0953 143.58 10.4653C143.586 10.1453 143.585 9.8253 143.572 9.5053C143.532 8.5463 143.484 7.5883 143.439 6.6293H143.372Z" fill="black"/>
</svg>
