<svg width="450" height="898" viewBox="0 0 450 898" fill="none" xmlns="http://www.w3.org/2000/svg">
<path fill-rule="evenodd" clip-rule="evenodd" d="M244 896C245.636 896 247.088 896.786 248 898H361.11C390.976 898 401.806 894.89 412.724 889.051C423.643 883.212 432.212 874.643 438.051 863.724C443.89 852.806 447 841.976 447 812.11V85.8902C447 56.0243 443.89 45.1942 438.051 34.2757C432.212 23.3572 423.643 14.7882 412.724 8.94895C401.806 3.10966 390.976 0 361.11 0H88.8902C59.0243 0 48.1942 3.10966 37.2757 8.94895C26.3572 14.7882 17.7882 23.3572 11.9489 34.2757C6.10966 45.1942 3 56.0243 3 85.8902V812.11C3 841.976 6.10966 852.806 11.9489 863.724C17.7882 874.643 26.3572 883.212 37.2757 889.051C48.1942 894.89 59.0243 898 88.8902 898H202C202.912 896.786 204.364 896 206 896H244ZM363.083 7H86.9166C60.171 7 50.4724 9.78477 40.6946 15.014C30.9169 20.2432 23.2432 27.9169 18.014 37.6946C12.7848 47.4724 10 57.171 10 83.9166V814.083C10 840.829 12.7848 850.528 18.014 860.305C23.2432 870.083 30.9169 877.757 40.6946 882.986C50.4724 888.215 60.171 891 86.9166 891H363.083C389.829 891 399.528 888.215 409.305 882.986C419.083 877.757 426.757 870.083 431.986 860.305C437.215 850.528 440 840.829 440 814.083V83.9166C440 57.171 437.215 47.4724 431.986 37.6946C426.757 27.9169 419.083 20.2432 409.305 15.014C399.528 9.78477 389.829 7 363.083 7Z" fill="#FCFCFC"/>
<path fill-rule="evenodd" clip-rule="evenodd" d="M244 896C245.636 896 247.088 896.786 248 898H361.11C390.976 898 401.806 894.89 412.724 889.051C423.643 883.212 432.212 874.643 438.051 863.724C443.89 852.806 447 841.976 447 812.11V85.8902C447 56.0243 443.89 45.1942 438.051 34.2757C432.212 23.3572 423.643 14.7882 412.724 8.94895C401.806 3.10966 390.976 0 361.11 0H88.8902C59.0243 0 48.1942 3.10966 37.2757 8.94895C26.3572 14.7882 17.7882 23.3572 11.9489 34.2757C6.10966 45.1942 3 56.0243 3 85.8902V812.11C3 841.976 6.10966 852.806 11.9489 863.724C17.7882 874.643 26.3572 883.212 37.2757 889.051C48.1942 894.89 59.0243 898 88.8902 898H202C202.912 896.786 204.364 896 206 896H244ZM363.083 7H86.9166C60.171 7 50.4724 9.78477 40.6946 15.014C30.9169 20.2432 23.2432 27.9169 18.014 37.6946C12.7848 47.4724 10 57.171 10 83.9166V814.083C10 840.829 12.7848 850.528 18.014 860.305C23.2432 870.083 30.9169 877.757 40.6946 882.986C50.4724 888.215 60.171 891 86.9166 891H363.083C389.829 891 399.528 888.215 409.305 882.986C419.083 877.757 426.757 870.083 431.986 860.305C437.215 850.528 440 840.829 440 814.083V83.9166C440 57.171 437.215 47.4724 431.986 37.6946C426.757 27.9169 419.083 20.2432 409.305 15.014C399.528 9.78477 389.829 7 363.083 7Z" fill="url(#paint0_linear)" fill-opacity="0.06"/>
<path fill-rule="evenodd" clip-rule="evenodd" d="M448 207C449.105 207 450 207.895 450 209V309C450 310.105 449.105 311 448 311C446.895 311 446 310.105 446 309V209C446 207.895 446.895 207 448 207Z" fill="white"/>
<path fill-rule="evenodd" clip-rule="evenodd" d="M2 267C3.10457 267 4 267.895 4 269V331C4 332.105 3.10457 333 2 333C0.89543 333 0 332.105 0 331V269C0 267.895 0.89543 267 2 267Z" fill="white"/>
<path fill-rule="evenodd" clip-rule="evenodd" d="M2 185C3.10457 185 4 185.895 4 187V249C4 250.105 3.10457 251 2 251C0.89543 251 0 250.105 0 249V187C0 185.895 0.89543 185 2 185Z" fill="white"/>
<path fill-rule="evenodd" clip-rule="evenodd" d="M2 121C3.10457 121 4 121.895 4 123V154C4 155.105 3.10457 156 2 156C0.89543 156 0 155.105 0 154V123C0 121.895 0.89543 121 2 121Z" fill="white"/>
<rect x="439" y="806" width="8" height="6" fill="#F5F5F5"/>
<rect x="3" y="806" width="8" height="6" fill="#F5F5F5"/>
<rect x="439" y="86" width="8" height="6" fill="#F5F5F5"/>
<rect x="3" y="86" width="8" height="6" fill="#F5F5F5"/>
<defs>
<linearGradient id="paint0_linear" x1="447" y1="0" x2="3" y2="0" gradientUnits="userSpaceOnUse">
<stop stop-color="white" stop-opacity="0.5"/>
<stop offset="0.966885" stop-color="white" stop-opacity="0.5"/>
<stop offset="1" stop-opacity="0.5"/>
</linearGradient>
</defs>
</svg>
