<svg width="89" height="89" viewBox="0 0 89 89" fill="none" xmlns="http://www.w3.org/2000/svg"><path d="M44.971 88.957C69.288 88.957 89 69.245 89 44.928 89 20.612 69.288.9 44.971.9 20.655.9.942 20.612.942 44.93c0 24.316 19.713 44.028 44.03 44.028z" fill="url(#paint0_linear)"/><path d="M19.265 44.546l29.65-12.216c2.926-1.272 12.852-5.345 12.852-5.345s4.581-1.781 4.2 2.545c-.128 1.782-1.146 8.017-2.164 14.762L60.622 64.27s-.255 2.927-2.418 3.436c-2.163.509-5.726-1.782-6.363-2.29-.509-.382-9.544-6.109-12.852-8.908-.89-.764-1.909-2.29.127-4.072 4.581-4.2 10.053-9.417 13.362-12.725 1.527-1.527 3.054-5.09-3.309-.764L31.227 51.036s-2.036 1.272-5.854.127-8.271-2.672-8.271-2.672-3.054-1.909 2.163-3.945z" fill="#fff"/><defs><linearGradient id="paint0_linear" x1="59.651" y1="15.579" x2="37.636" y2="66.943" gradientUnits="userSpaceOnUse"><stop stop-color="#37AEE2"/><stop offset="1" stop-color="#1E96C8"/></linearGradient></defs></svg>