<svg width="52" height="55" viewBox="0 0 52 55" fill="none" xmlns="http://www.w3.org/2000/svg"><path d="M45.458 5.665C44.116 4.428 38.696.493 26.622.44c0 0-14.238-.858-21.179 5.508C1.58 9.811.221 15.466.077 22.477c-.143 7.01-.329 20.148 12.335 23.71h.013l-.009 5.436s-.08 2.2 1.369 2.65c1.752.544 2.781-1.129 4.454-2.932.92-.99 2.188-2.444 3.143-3.555 8.662.729 15.323-.937 16.08-1.183 1.748-.567 11.644-1.835 13.253-14.972 1.661-13.54-.803-22.105-5.258-25.966z" fill="#fff"/><path d="M42.641 8.4c-1.134-1.03-6.029-4.105-16.242-4.15 0 0-12.094-.795-17.965 4.523C5.167 12 4.066 16.797 3.946 22.651c-.121 5.855-.746 17.04 9.962 20.014 0 0-.042 8.303-.047 9.033 0 .51.081.86.373.932.21.05.524-.058.791-.324 1.713-1.72 7.195-8.333 7.195-8.333 7.355.48 13.207-.972 13.837-1.178 1.483-.477 9.51-1.166 10.868-12.139 1.404-11.31-.516-19.03-4.284-22.256z" fill="#7360F2"/><path fill-rule="evenodd" clip-rule="evenodd" d="M24.589 10.74a.683.683 0 01.688-.678c3.962.027 7.312 1.347 10 3.968 2.713 2.644 4.054 6.243 4.088 10.712a.683.683 0 11-1.366.01c-.032-4.188-1.278-7.408-3.674-9.744-2.42-2.358-5.423-3.555-9.058-3.58a.683.683 0 01-.678-.688zm1.205 3.497a.683.683 0 01.731-.631c2.868.21 5.176 1.19 6.857 3.024 1.663 1.818 2.453 4.078 2.396 6.73a.683.683 0 01-1.365-.03c.05-2.338-.637-4.247-2.038-5.777-1.397-1.525-3.35-2.395-5.95-2.585a.683.683 0 01-.63-.731zm1.035 3.678a.683.683 0 01.718-.646c1.409.074 2.581.5 3.416 1.363.832.86 1.24 2.061 1.311 3.504a.683.683 0 11-1.364.068c-.061-1.235-.4-2.076-.928-2.622-.526-.544-1.328-.888-2.506-.95a.683.683 0 01-.646-.717z" fill="#fff"/><path d="M27.647 31.316s.96.08 1.476-.556l1.008-1.268c.486-.628 1.659-1.029 2.807-.39a29.744 29.744 0 012.504 1.6c.762.56 2.323 1.863 2.328 1.863.743.628.915 1.55.409 2.521 0 .006-.004.016-.004.02a10.515 10.515 0 01-2.097 2.583c-.01.005-.01.01-.019.014-.722.604-1.432.947-2.13 1.03a1.409 1.409 0 01-.31.02 2.835 2.835 0 01-.906-.14l-.023-.033c-1.074-.303-2.867-1.061-5.853-2.709a34.863 34.863 0 01-4.919-3.249 25.794 25.794 0 01-2.212-1.962l-.074-.074-.075-.074-.074-.075-.075-.075a25.78 25.78 0 01-1.962-2.212 34.895 34.895 0 01-3.248-4.917c-1.648-2.987-2.406-4.779-2.709-5.855l-.033-.022a2.838 2.838 0 01-.139-.906 1.34 1.34 0 01.019-.31c.087-.697.43-1.407 1.031-2.132.005-.009.01-.009.015-.019a10.492 10.492 0 012.582-2.096c.005 0 .014-.005.02-.005.972-.506 1.894-.334 2.52.405.006.005 1.306 1.566 1.864 2.328a29.686 29.686 0 011.599 2.506c.64 1.148.239 2.323-.39 2.808l-1.268 1.007c-.64.517-.555 1.477-.555 1.477s1.877 7.106 8.893 8.897z" fill="#fff"/></svg>