<svg width="86" height="87" viewBox="0 0 86 87" fill="none" xmlns="http://www.w3.org/2000/svg"><path d="M0 86.707l6.07-22.154c-9.654-16.772-6.842-37.936 6.856-51.606C26.624-.722 47.794-3.49 64.546 6.2c16.752 9.689 24.91 29.419 19.893 48.109-5.018 18.69-21.96 31.681-41.312 31.678a42.736 42.736 0 01-20.434-5.201L0 86.707zm23.723-13.685l1.296.773a35.494 35.494 0 0018.093 4.95c16.21-.003 30.364-10.972 34.413-26.669 4.048-15.697-3.036-32.144-17.222-39.987C46.116 4.246 28.42 6.994 17.28 18.77 6.14 30.547 4.378 48.368 12.996 62.097l.846 1.344-3.59 13.11 13.47-3.528z" fill="#fff"/><path d="M1.491 85.217L7.346 63.83C-1.99 47.64.713 27.197 13.934 13.988 27.157.778 47.602-1.905 63.785 7.446 79.966 16.796 87.852 35.849 83.01 53.9c-4.841 18.052-21.203 30.602-39.892 30.6a41.298 41.298 0 01-19.729-5.019L1.491 85.217z" fill="url(#paint0_linear)"/><path d="M0 86.707l6.07-22.154c-9.654-16.772-6.842-37.936 6.856-51.606C26.624-.723 47.794-3.49 64.546 6.2c16.752 9.688 24.91 29.418 19.893 48.108-5.018 18.69-21.96 31.682-41.312 31.679a42.735 42.735 0 01-20.434-5.202L0 86.707zm23.723-13.685l1.296.773a35.495 35.495 0 0018.093 4.95c16.21-.003 30.364-10.973 34.413-26.67 4.048-15.696-3.036-32.143-17.222-39.986C46.116 4.246 28.42 6.994 17.28 18.77 6.14 30.547 4.378 48.367 12.996 62.097l.846 1.344-3.59 13.11 13.47-3.528z" fill="url(#paint1_linear)"/><path fill-rule="evenodd" clip-rule="evenodd" d="M32.437 25.316c-.8-1.778-1.641-1.814-2.404-1.845-.623-.027-1.339-.027-2.05-.027a3.92 3.92 0 00-2.849 1.339 11.976 11.976 0 00-3.737 8.886c0 5.26 3.826 10.34 4.36 11.051.532.711 7.391 11.846 18.254 16.133 9.028 3.56 10.863 2.848 12.823 2.67 1.96-.177 6.32-2.582 7.214-5.075.894-2.494.889-4.637.622-5.081-.267-.445-.977-.716-2.05-1.25-1.07-.533-6.32-3.136-7.318-3.476-.998-.34-1.688-.523-2.404.523-.717 1.045-2.755 3.47-3.383 4.182-.627.71-1.244.8-2.315.266a29.204 29.204 0 01-8.59-5.3 32.283 32.283 0 01-5.948-7.402c-.622-1.046-.063-1.647.47-2.18.534-.534 1.046-1.25 1.605-1.872a7.197 7.197 0 001.046-1.782 1.971 1.971 0 00-.09-1.872c-.23-.491-2.304-5.776-3.256-7.888z" fill="#fff"/><defs><linearGradient id="paint0_linear" x1="42.945" y1="85.217" x2="42.945" y2="1.932" gradientUnits="userSpaceOnUse"><stop stop-color="#20B038"/><stop offset="1" stop-color="#60D66A"/></linearGradient><linearGradient id="paint1_linear" x1="42.944" y1="86.713" x2="42.944" y2=".437" gradientUnits="userSpaceOnUse"><stop stop-color="#F9F9F9"/><stop offset="1" stop-color="#fff"/></linearGradient></defs></svg>