<svg width="234" height="30" viewBox="0 0 234 30" fill="none" xmlns="http://www.w3.org/2000/svg">
<path d="M2.40125 0.655998V9.328H13.3453V0.655998H15.7133V22H13.3453V11.568H2.40125V22H0.0332501V0.655998H2.40125ZM29.2207 10.608V8.72H31.5248V22H29.2207V20.144C28.0688 21.6373 26.5541 22.384 24.6768 22.384C22.8848 22.384 21.3594 21.7653 20.1007 20.528C18.8421 19.2907 18.2127 17.5627 18.2127 15.344C18.2127 13.168 18.8314 11.472 20.0687 10.256C21.3274 9.01867 22.8634 8.4 24.6768 8.4C26.5968 8.4 28.1114 9.136 29.2207 10.608ZM24.9327 10.448C23.7167 10.448 22.6821 10.8853 21.8287 11.76C20.9967 12.6133 20.5807 13.808 20.5807 15.344C20.5807 16.816 20.9647 18.0213 21.7327 18.96C22.5221 19.8773 23.5887 20.336 24.9327 20.336C26.2768 20.336 27.3434 19.856 28.1328 18.896C28.9434 17.936 29.3488 16.7627 29.3488 15.376C29.3488 13.7973 28.9008 12.5813 28.0048 11.728C27.1088 10.8747 26.0848 10.448 24.9327 10.448ZM36.5925 20.144V29.36H34.2885V8.72H36.5925V10.576C37.7658 9.12533 39.2805 8.4 41.1365 8.4C43.1205 8.4 44.6885 9.104 45.8405 10.512C47.0138 11.8987 47.6005 13.5413 47.6005 15.44C47.6005 17.36 47.0245 19.0027 45.8725 20.368C44.7205 21.712 43.1738 22.384 41.2325 22.384C39.2912 22.384 37.7445 21.6373 36.5925 20.144ZM40.9125 20.336C42.2138 20.336 43.2592 19.8667 44.0485 18.928C44.8378 17.968 45.2325 16.8053 45.2325 15.44C45.2325 13.904 44.7952 12.688 43.9205 11.792C43.0458 10.896 42.0325 10.448 40.8805 10.448C39.7285 10.448 38.7045 10.896 37.8085 11.792C36.9125 12.688 36.4645 13.8933 36.4645 15.408C36.4645 16.7947 36.8698 17.968 37.6805 18.928C38.5125 19.8667 39.5898 20.336 40.9125 20.336ZM60.7643 20.4C59.4416 21.7227 57.7669 22.384 55.7403 22.384C53.7136 22.384 52.0283 21.7227 50.6843 20.4C49.3616 19.0773 48.7003 17.4133 48.7003 15.408C48.7003 13.3813 49.3616 11.7067 50.6843 10.384C52.0283 9.06133 53.7136 8.4 55.7403 8.4C57.7669 8.4 59.4416 9.06133 60.7643 10.384C62.1083 11.7067 62.7803 13.3813 62.7803 15.408C62.7803 17.4133 62.1083 19.0773 60.7643 20.4ZM59.0363 11.76C58.1403 10.8853 57.0416 10.448 55.7403 10.448C54.4389 10.448 53.3296 10.896 52.4123 11.792C51.5163 12.6667 51.0683 13.872 51.0683 15.408C51.0683 16.944 51.5269 18.1493 52.4443 19.024C53.3616 19.8987 54.4603 20.336 55.7403 20.336C57.0203 20.336 58.1189 19.8987 59.0363 19.024C59.9536 18.1493 60.4123 16.944 60.4123 15.408C60.4123 13.8507 59.9536 12.6347 59.0363 11.76ZM65.6735 8.72H75.0175V19.888H77.0015V25.52H74.8895V22H64.7775V25.52H62.6655V19.888C63.7748 19.8667 64.5962 19.2907 65.1295 18.16C65.4922 17.4133 65.6735 16.24 65.6735 14.64V8.72ZM72.7135 19.888V10.832H67.9775V15.824C67.9775 17.5947 67.4442 18.9493 66.3775 19.888H72.7135ZM77.8323 22V8.72H80.1363V14.16H86.4083V8.72H88.7123V22H86.4083V16.272H80.1363V22H77.8323ZM91.451 22V8.72H93.755V13.808H96.123C97.9577 13.808 99.3017 14.2453 100.155 15.12C100.838 15.8027 101.179 16.7307 101.179 17.904C101.179 19.1413 100.784 20.1333 99.995 20.88C99.2057 21.6267 97.9043 22 96.091 22H91.451ZM93.755 19.952H95.899C96.859 19.952 97.5417 19.8347 97.947 19.6C98.523 19.216 98.811 18.6507 98.811 17.904C98.811 17.136 98.5337 16.5813 97.979 16.24C97.595 15.984 96.9123 15.856 95.931 15.856H93.755V19.952ZM102.779 22V8.72H105.083V22H102.779ZM107.82 8.72H110.124V17.488L119.212 7.696V22H116.908V13.136L107.82 22.928V8.72ZM108.972 2.992L110.892 2.256C111.276 3.536 112.182 4.176 113.612 4.176C115.041 4.176 115.948 3.536 116.332 2.256L118.252 2.992C117.91 3.952 117.324 4.70933 116.492 5.264C115.681 5.81867 114.721 6.096 113.612 6.096C112.502 6.096 111.532 5.81867 110.7 5.264C109.889 4.70933 109.313 3.952 108.972 2.992ZM128.799 8.72H138.143V19.888H140.127V25.52H138.015V22H127.903V25.52H125.791V19.888C126.9 19.8667 127.721 19.2907 128.255 18.16C128.617 17.4133 128.799 16.24 128.799 14.64V8.72ZM135.839 19.888V10.832H131.103V15.824C131.103 17.5947 130.569 18.9493 129.503 19.888H135.839ZM152.189 20.4C150.867 21.7227 149.192 22.384 147.165 22.384C145.139 22.384 143.453 21.7227 142.109 20.4C140.787 19.0773 140.125 17.4133 140.125 15.408C140.125 13.3813 140.787 11.7067 142.109 10.384C143.453 9.06133 145.139 8.4 147.165 8.4C149.192 8.4 150.867 9.06133 152.189 10.384C153.533 11.7067 154.205 13.3813 154.205 15.408C154.205 17.4133 153.533 19.0773 152.189 20.4ZM150.461 11.76C149.565 10.8853 148.467 10.448 147.165 10.448C145.864 10.448 144.755 10.896 143.837 11.792C142.941 12.6667 142.493 13.872 142.493 15.408C142.493 16.944 142.952 18.1493 143.869 19.024C144.787 19.8987 145.885 20.336 147.165 20.336C148.445 20.336 149.544 19.8987 150.461 19.024C151.379 18.1493 151.837 16.944 151.837 15.408C151.837 13.8507 151.379 12.6347 150.461 11.76ZM154.602 22L157.802 7.696L163.306 18.512L168.682 7.696L171.882 22H169.514L167.754 13.776L163.242 22.928L158.666 13.776L156.97 22H154.602ZM184.333 20.4C183.01 21.7227 181.336 22.384 179.309 22.384C177.282 22.384 175.597 21.7227 174.253 20.4C172.93 19.0773 172.269 17.4133 172.269 15.408C172.269 13.3813 172.93 11.7067 174.253 10.384C175.597 9.06133 177.282 8.4 179.309 8.4C181.336 8.4 183.01 9.06133 184.333 10.384C185.677 11.7067 186.349 13.3813 186.349 15.408C186.349 17.4133 185.677 19.0773 184.333 20.4ZM182.605 11.76C181.709 10.8853 180.61 10.448 179.309 10.448C178.008 10.448 176.898 10.896 175.981 11.792C175.085 12.6667 174.637 13.872 174.637 15.408C174.637 16.944 175.096 18.1493 176.013 19.024C176.93 19.8987 178.029 20.336 179.309 20.336C180.589 20.336 181.688 19.8987 182.605 19.024C183.522 18.1493 183.981 16.944 183.981 15.408C183.981 13.8507 183.522 12.6347 182.605 11.76ZM195.354 29.36V22.224C193.029 22.224 191.162 21.648 189.754 20.496C188.218 19.2587 187.45 17.5413 187.45 15.344C187.45 13.168 188.208 11.4613 189.722 10.224C191.088 9.072 192.965 8.496 195.354 8.496V0.655998H197.658V8.496C200.048 8.496 201.925 9.072 203.29 10.224C204.805 11.4613 205.562 13.168 205.562 15.344C205.562 17.5413 204.794 19.2587 203.258 20.496C201.85 21.648 199.984 22.224 197.658 22.224V29.36H195.354ZM195.354 20.176V10.544C193.84 10.544 192.656 10.8213 191.802 11.376C190.48 12.208 189.818 13.5307 189.818 15.344C189.818 17.0507 190.437 18.3413 191.674 19.216C192.57 19.856 193.797 20.176 195.354 20.176ZM197.658 10.544V20.176C199.216 20.176 200.442 19.856 201.338 19.216C202.576 18.3413 203.194 17.0507 203.194 15.344C203.194 13.5307 202.533 12.208 201.21 11.376C200.357 10.8213 199.173 10.544 197.658 10.544ZM218.727 20.4C217.404 21.7227 215.729 22.384 213.703 22.384C211.676 22.384 209.991 21.7227 208.647 20.4C207.324 19.0773 206.663 17.4133 206.663 15.408C206.663 13.3813 207.324 11.7067 208.647 10.384C209.991 9.06133 211.676 8.4 213.703 8.4C215.729 8.4 217.404 9.06133 218.727 10.384C220.071 11.7067 220.743 13.3813 220.743 15.408C220.743 17.4133 220.071 19.0773 218.727 20.4ZM216.999 11.76C216.103 10.8853 215.004 10.448 213.703 10.448C212.401 10.448 211.292 10.896 210.375 11.792C209.479 12.6667 209.031 13.872 209.031 15.408C209.031 16.944 209.489 18.1493 210.407 19.024C211.324 19.8987 212.423 20.336 213.703 20.336C214.983 20.336 216.081 19.8987 216.999 19.024C217.916 18.1493 218.375 16.944 218.375 15.408C218.375 13.8507 217.916 12.6347 216.999 11.76ZM222.676 22V8.72H224.98V14.16H231.252V8.72H233.556V22H231.252V16.272H224.98V22H222.676Z" fill="black"/>
</svg>
