<svg width="169" height="169" viewBox="0 0 169 169" fill="none" xmlns="http://www.w3.org/2000/svg">
<path d="M169 0H0V169H169V0Z" />
<path d="M64.1035 13.6584C64.1035 13.1045 63.908 12.6321 63.5173 12.2413C63.1265 11.8506 62.6541 11.6552 62.1002 11.6552H60.2791C59.7252 11.6552 59.2528 11.8506 58.8621 12.2413C58.4713 12.6321 58.2759 13.1045 58.2759 13.6584V15.4795C58.2759 15.5099 58.2797 15.5554 58.2872 15.6161H58.2759V17.4827H64.1035V15.6161H64.0921C64.0998 15.5554 64.1035 15.5099 64.1035 15.4795V13.6584Z" fill="black"/>
<path d="M75.7586 13.6584V11.6552H71.9343C71.3804 11.6552 70.908 11.8506 70.5172 12.2413C70.1265 12.6321 69.931 13.1045 69.931 13.6584V15.4795C69.931 16.0334 70.1264 16.5058 70.5172 16.8965C70.908 17.2873 71.3804 17.4827 71.9343 17.4827H75.7586V13.6584Z" fill="black"/>
<path d="M81.5861 11.6552H75.7585V17.4827H81.5861V11.6552Z" fill="black"/>
<path d="M87.4138 13.6584C87.4138 13.1045 87.2183 12.6321 86.8276 12.2413C86.4368 11.8506 85.9644 11.6552 85.4105 11.6552H81.5862V17.4827H87.4138V13.6584Z" fill="black"/>
<path d="M99.0689 15.4795C99.0689 16.0335 98.8734 16.5058 98.4827 16.8965C98.092 17.2872 97.6197 17.4827 97.0657 17.4827H95.2446C94.6907 17.4827 94.2183 17.2872 93.8276 16.8965C93.4368 16.5058 93.2413 16.0335 93.2413 15.4795V13.6584C93.2413 13.1045 93.4367 12.6321 93.8275 12.2414C94.2184 11.8506 94.6907 11.6552 95.2446 11.6552H97.0657C97.6198 11.6552 98.0921 11.8506 98.4827 12.2413C98.8735 12.6322 99.0689 13.1045 99.0689 13.6584V15.4795Z" fill="black"/>
<path d="M110.724 13.6584C110.724 13.1045 110.529 12.6321 110.138 12.2413C109.747 11.8506 109.275 11.6552 108.721 11.6552H106.9C106.346 11.6552 105.873 11.8506 105.483 12.2413C105.092 12.6321 104.896 13.1045 104.896 13.6584V15.4795C104.896 15.5099 104.9 15.5554 104.908 15.6161H104.896V17.4827H110.724V15.6161H110.713C110.72 15.5554 110.724 15.5099 110.724 15.4795V13.6584Z" fill="black"/>
<path d="M64.1035 17.4828H58.2759V23.3104H64.1035V17.4828Z" fill="black"/>
<path d="M81.5861 17.4828H75.7585V21.3071C75.7585 21.8611 75.9539 22.3334 76.3447 22.7242C76.7355 23.1149 77.2079 23.3104 77.7618 23.3104H81.5861V17.4828Z" fill="black"/>
<path d="M87.4138 17.4828H81.5862V23.3104H87.4138V17.4828Z" fill="black"/>
<path d="M110.713 19.3494H110.724V17.4828H104.896V19.3494H104.908C104.9 19.4101 104.896 19.4557 104.896 19.486V21.3071C104.896 21.8611 105.092 22.3334 105.483 22.7242C105.873 23.1149 106.346 23.3104 106.9 23.3104H108.721C109.275 23.3104 109.747 23.1149 110.138 22.7242C110.529 22.3334 110.724 21.8611 110.724 21.3071V19.486C110.724 19.4557 110.72 19.4101 110.713 19.3494Z" fill="black"/>
<path d="M64.0921 25.1769H64.1035V23.3103H58.2759V25.1769H58.2872C58.2797 25.2377 58.2759 25.2832 58.2759 25.3135V27.1347C58.2759 27.6886 58.4713 28.161 58.8621 28.5517C59.2529 28.9424 59.7252 29.1379 60.2791 29.1379H62.1002C62.6541 29.1379 63.1265 28.9424 63.5173 28.5517C63.908 28.161 64.1035 27.6886 64.1035 27.1347V25.3135C64.1035 25.2832 64.0998 25.2377 64.0921 25.1769Z" fill="black"/>
<path d="M75.7586 25.3135C75.7586 24.7596 75.5632 24.2872 75.1724 23.8965C74.7817 23.5058 74.3093 23.3103 73.7554 23.3103H71.9343C71.3804 23.3103 70.908 23.5057 70.5172 23.8965C70.1265 24.2873 69.931 24.7596 69.931 25.3135V27.1347C69.931 27.165 69.9348 27.2106 69.9424 27.2713H69.931V29.1379H75.7586V27.2713H75.7473C75.755 27.2106 75.7586 27.1651 75.7586 27.1347V25.3135Z" fill="black"/>
<path d="M87.4138 23.3103H81.5862V29.1379H87.4138V23.3103Z" fill="black"/>
<path d="M93.2414 23.3103H87.4138V29.1379H93.2414V23.3103Z" fill="black"/>
<path d="M99.0689 25.3135C99.0689 24.7596 98.8735 24.2872 98.4827 23.8965C98.092 23.5058 97.6196 23.3103 97.0657 23.3103H93.2413V29.1379H99.0689V25.3135Z" fill="black"/>
<path d="M69.931 31.1412V29.1379H66.1066C65.5527 29.1379 65.0803 29.3333 64.6896 29.7241C64.2988 30.1149 64.1034 30.5873 64.1034 31.1412V32.9623C64.1034 33.5162 64.2988 33.9886 64.6896 34.3793C65.0804 34.7701 65.5527 34.9655 66.1066 34.9655H69.931V31.1412Z" fill="black"/>
<path d="M75.7586 29.1379H69.931V34.9655H73.7554C74.3093 34.9655 74.7817 34.7701 75.1724 34.3793C75.5632 33.9886 75.7586 33.5162 75.7586 32.9623V29.1379Z" fill="black"/>
<path d="M87.4138 29.1379H81.5862V32.9623C81.5862 33.5162 81.7816 33.9886 82.1724 34.3793C82.5632 34.7701 83.0355 34.9655 83.5894 34.9655H87.4138V29.1379Z" fill="black"/>
<path d="M93.2414 29.1379H87.4138V34.9655H93.2414V29.1379Z" fill="black"/>
<path d="M99.0689 29.1379H93.2413V34.9655H99.0689V29.1379Z" fill="black"/>
<path d="M104.897 29.1379H99.069V34.9655H104.897V29.1379Z" fill="black"/>
<path d="M110.724 31.1412C110.724 30.5873 110.529 30.1149 110.138 29.7241C109.747 29.3334 109.275 29.1379 108.721 29.1379H104.896V34.9655H110.724V31.1412Z" fill="black"/>
<path d="M64.1035 38.7898C64.1035 39.3438 63.9079 39.8161 63.5173 40.2069C63.1265 40.5975 62.6543 40.7931 62.1002 40.7931H60.2791C59.7253 40.7931 59.2529 40.5975 58.8621 40.2069C58.4713 39.8161 58.2759 39.3438 58.2759 38.7898V36.9687C58.2759 36.4148 58.4713 35.9425 58.8621 35.5517C59.2529 35.1609 59.7253 34.9655 60.2791 34.9655H62.1002C62.6543 34.9655 63.1266 35.1609 63.5173 35.5517C63.908 35.9425 64.1035 36.4148 64.1035 36.9687V38.7898Z" fill="black"/>
<path d="M93.23 36.8321H93.2414V34.9655H87.4138V36.8321H87.4252C87.4176 36.8928 87.4138 36.9383 87.4138 36.9687V38.7898C87.4138 39.3437 87.6092 39.8161 88 40.2069C88.3908 40.5976 88.8631 40.7931 89.4171 40.7931H91.2382C91.7921 40.7931 92.2645 40.5976 92.6552 40.2069C93.046 39.8161 93.2414 39.3437 93.2414 38.7898V36.9687C93.2414 36.9383 93.2377 36.8928 93.23 36.8321Z" fill="black"/>
<path d="M110.724 34.9655H104.896V40.7931H110.724V34.9655Z" fill="black"/>
<path d="M87.4138 42.7963C87.4138 42.2424 87.2183 41.77 86.8276 41.3793C86.4368 40.9885 85.9644 40.7931 85.4105 40.7931H83.5894C83.0355 40.7931 82.5631 40.9885 82.1724 41.3793C81.7816 41.7701 81.5862 42.2424 81.5862 42.7963V44.6174C81.5862 44.6478 81.59 44.6934 81.5975 44.754H81.5862V46.6207H87.4138V44.754H87.4024C87.4101 44.6934 87.4138 44.6479 87.4138 44.6174V42.7963Z" fill="black"/>
<path d="M110.724 40.7931H104.896V46.6207H110.724V40.7931Z" fill="black"/>
<path d="M64.1035 50.445C64.1035 50.999 63.9079 51.4713 63.5173 51.862C63.1265 52.2527 62.6543 52.4482 62.1002 52.4482H60.2791C59.7253 52.4482 59.2529 52.2527 58.8621 51.862C58.4713 51.4713 58.2759 50.999 58.2759 50.445V48.6238C58.2759 48.07 58.4713 47.5976 58.8621 47.2069C59.2529 46.8161 59.7253 46.6206 60.2791 46.6206H62.1002C62.6543 46.6206 63.1266 46.816 63.5173 47.2068C63.908 47.5977 64.1035 48.07 64.1035 48.6238V50.445Z" fill="black"/>
<path d="M75.7586 48.6238C75.7586 48.0699 75.5632 47.5975 75.1724 47.2068C74.7817 46.8161 74.3093 46.6206 73.7554 46.6206H71.9343C71.3804 46.6206 70.908 46.816 70.5172 47.2068C70.1265 47.5976 69.931 48.0699 69.931 48.6238V50.445C69.931 50.4753 69.9348 50.5209 69.9424 50.5816H69.931V52.4482H75.7586V50.5816H75.7473C75.755 50.5209 75.7586 50.4754 75.7586 50.445V48.6238Z" fill="black"/>
<path d="M87.4138 46.6206H81.5862V52.4482H87.4138V46.6206Z" fill="black"/>
<path d="M99.0689 50.445C99.0689 50.999 98.8734 51.4713 98.4827 51.862C98.092 52.2527 97.6197 52.4482 97.0657 52.4482H95.2446C94.6907 52.4482 94.2183 52.2527 93.8276 51.862C93.4368 51.4713 93.2413 50.999 93.2413 50.445V48.6238C93.2413 48.07 93.4367 47.5976 93.8275 47.2069C94.2184 46.8161 94.6907 46.6206 95.2446 46.6206H97.0657C97.6198 46.6206 98.0921 46.816 98.4827 47.2068C98.8735 47.5977 99.0689 48.07 99.0689 48.6238V50.445Z" fill="black"/>
<path d="M110.724 46.6206H104.896V52.4482H110.724V46.6206Z" fill="black"/>
<path d="M75.7473 54.3149H75.7586V52.4482H69.931V54.3149H69.9424C69.9348 54.3756 69.931 54.4211 69.931 54.4515V56.2726C69.931 56.8265 70.1264 57.2989 70.5172 57.6896C70.908 58.0804 71.3804 58.2758 71.9343 58.2758H73.7554C74.3093 58.2758 74.7817 58.0804 75.1724 57.6896C75.5632 57.2989 75.7586 56.8265 75.7586 56.2726V54.4515C75.7586 54.4211 75.755 54.3756 75.7473 54.3149Z" fill="black"/>
<path d="M87.4138 52.4482H81.5862V56.2726C81.5862 56.8265 81.7816 57.2989 82.1724 57.6896C82.5632 58.0804 83.0355 58.2758 83.5894 58.2758H87.4138V52.4482Z" fill="black"/>
<path d="M91.2382 52.4482H87.4138V58.2758H91.2382C91.7921 58.2758 92.2645 58.0804 92.6552 57.6896C93.046 57.2989 93.2414 56.8265 93.2414 56.2726V54.4515C93.2414 53.8976 93.046 53.4252 92.6552 53.0344C92.2645 52.6437 91.7921 52.4482 91.2382 52.4482Z" fill="black"/>
<path d="M110.713 54.3149H110.724V52.4482H104.896V54.3149H104.908C104.9 54.3756 104.896 54.4211 104.896 54.4515V56.2726C104.896 56.8265 105.092 57.2989 105.483 57.6896C105.873 58.0804 106.346 58.2758 106.9 58.2758H108.721C109.275 58.2758 109.747 58.0804 110.138 57.6896C110.529 57.2989 110.724 56.8265 110.724 56.2726V54.4515C110.724 54.4211 110.72 54.3756 110.713 54.3149Z" fill="black"/>
<path d="M17.4827 62.1002C17.4827 62.6543 17.2872 63.1265 16.8965 63.5173C16.5058 63.9079 16.0335 64.1035 15.4795 64.1035H13.6584C13.1045 64.1035 12.6321 63.9079 12.2414 63.5173C11.8506 63.1265 11.6552 62.6543 11.6552 62.1002V60.2791C11.6552 59.7253 11.8506 59.2529 12.2413 58.8621C12.6322 58.4713 13.1045 58.2759 13.6584 58.2759H15.4795C16.0336 58.2759 16.5059 58.4713 16.8965 58.8621C17.2873 59.2529 17.4827 59.7253 17.4827 60.2791V62.1002Z" fill="black"/>
<path d="M34.9655 60.2791V58.2759H31.1412C30.5873 58.2759 30.1149 58.4713 29.7241 58.8621C29.3334 59.2529 29.1379 59.7252 29.1379 60.2791V64.1035H34.9655V60.2791Z" fill="black"/>
<path d="M40.7931 58.2759H34.9655V64.1035H40.7931V58.2759Z" fill="black"/>
<path d="M46.6207 58.2759H40.7931V64.1035H46.6207V58.2759Z" fill="black"/>
<path d="M52.4482 58.2759H46.6206V64.1035H52.4482V58.2759Z" fill="black"/>
<path d="M58.2758 58.2759H52.4482V64.1035H58.2758V58.2759Z" fill="black"/>
<path d="M64.1035 58.2759H58.2759V64.1035H64.1035V58.2759Z" fill="black"/>
<path d="M67.9277 58.2759H64.1034V64.1035H67.9277C68.4816 64.1035 68.954 63.908 69.3448 63.5173C69.7355 63.1265 69.931 62.6541 69.931 62.1002V60.2791C69.931 59.7252 69.7355 59.2528 69.3448 58.8621C68.954 58.4713 68.4816 58.2759 67.9277 58.2759Z" fill="black"/>
<path d="M81.5861 62.1002C81.5861 62.6543 81.3906 63.1265 80.9999 63.5173C80.6092 63.9079 80.1369 64.1035 79.5829 64.1035H77.7618C77.2079 64.1035 76.7355 63.9079 76.3448 63.5173C75.954 63.1265 75.7585 62.6543 75.7585 62.1002V60.2791C75.7585 59.7253 75.9539 59.2529 76.3447 58.8621C76.7356 58.4713 77.2079 58.2759 77.7618 58.2759H79.5829C80.137 58.2759 80.6093 58.4713 80.9999 58.8621C81.3907 59.2529 81.5861 59.7253 81.5861 60.2791V62.1002Z" fill="black"/>
<path d="M99.0689 60.2791V58.2759H95.2446C94.6907 58.2759 94.2183 58.4713 93.8275 58.8621C93.4368 59.2529 93.2413 59.7252 93.2413 60.2791V62.1002C93.2413 62.6541 93.4367 63.1265 93.8275 63.5173C94.2183 63.908 94.6907 64.1035 95.2446 64.1035H99.0689V60.2791Z" fill="black"/>
<path d="M104.897 60.2791C104.897 59.7252 104.701 59.2528 104.31 58.8621C103.92 58.4713 103.447 58.2759 102.893 58.2759H99.069V64.1035H104.897V60.2791Z" fill="black"/>
<path d="M116.552 62.1002C116.552 62.6543 116.356 63.1265 115.966 63.5173C115.575 63.9079 115.103 64.1035 114.548 64.1035H112.727C112.174 64.1035 111.701 63.9079 111.31 63.5173C110.92 63.1265 110.724 62.6543 110.724 62.1002V60.2791C110.724 59.7253 110.92 59.2529 111.31 58.8621C111.701 58.4713 112.174 58.2759 112.727 58.2759H114.548C115.103 58.2759 115.575 58.4713 115.966 58.8621C116.356 59.2529 116.552 59.7253 116.552 60.2791V62.1002Z" fill="black"/>
<path d="M134.035 60.2791C134.035 59.7252 133.839 59.2528 133.448 58.8621C133.058 58.4713 132.585 58.2759 132.031 58.2759H130.21C129.656 58.2759 129.184 58.4713 128.793 58.8621C128.402 59.2529 128.207 59.7252 128.207 60.2791V62.1002C128.207 62.1306 128.211 62.1762 128.218 62.2368H128.207V64.1035H134.035V62.2368H134.023C134.031 62.1762 134.035 62.1307 134.035 62.1002V60.2791Z" fill="black"/>
<path d="M145.69 60.2791V58.2759H141.865C141.311 58.2759 140.839 58.4713 140.448 58.8621C140.058 59.2529 139.862 59.7252 139.862 60.2791V64.1035H145.69V60.2791Z" fill="black"/>
<path d="M151.517 58.2759H145.69V64.1035H151.517V58.2759Z" fill="black"/>
<path d="M155.342 58.2759H151.517V64.1035H155.342C155.895 64.1035 156.368 63.908 156.759 63.5173C157.149 63.1265 157.345 62.6541 157.345 62.1002V60.2791C157.345 59.7252 157.149 59.2528 156.759 58.8621C156.368 58.4713 155.895 58.2759 155.342 58.2759Z" fill="black"/>
<path d="M23.3104 66.1066V64.1034H19.486C18.9321 64.1034 18.4597 64.2988 18.069 64.6896C17.6782 65.0804 17.4828 65.5527 17.4828 66.1066V69.931H23.3104V66.1066Z" fill="black"/>
<path d="M29.1379 64.1034H23.3103V69.931H29.1379V64.1034Z" fill="black"/>
<path d="M34.9655 64.1034H29.1379V69.931H34.9655V64.1034Z" fill="black"/>
<path d="M40.7931 64.1034H34.9655V69.931H40.7931V64.1034Z" fill="black"/>
<path d="M46.6207 64.1034H40.7931V69.931H44.6174C45.1714 69.931 45.6437 69.7355 46.0345 69.3448C46.4252 68.954 46.6207 68.4816 46.6207 67.9277V64.1034Z" fill="black"/>
<path d="M64.0921 65.97H64.1035V64.1034H58.2759V65.97H58.2872C58.2797 66.0307 58.2759 66.0763 58.2759 66.1066V67.9277C58.2759 68.4816 58.4713 68.954 58.8621 69.3448C59.2529 69.7355 59.7252 69.931 60.2791 69.931H62.1002C62.6541 69.931 63.1265 69.7355 63.5173 69.3448C63.908 68.954 64.1035 68.4816 64.1035 67.9277V66.1066C64.1035 66.0763 64.0998 66.0307 64.0921 65.97Z" fill="black"/>
<path d="M104.897 64.1034H99.069V69.931H104.897V64.1034Z" fill="black"/>
<path d="M128.207 66.1066V64.1034H124.383C123.829 64.1034 123.356 64.2988 122.966 64.6896C122.575 65.0804 122.379 65.5527 122.379 66.1066V67.9277C122.379 68.4816 122.575 68.954 122.966 69.3448C123.356 69.7355 123.829 69.931 124.383 69.931H128.207V66.1066Z" fill="black"/>
<path d="M134.035 64.1034H128.207V69.931H134.035V64.1034Z" fill="black"/>
<path d="M139.862 64.1034H134.034V69.931H139.862V64.1034Z" fill="black"/>
<path d="M145.69 64.1034H139.862V69.931H145.69V64.1034Z" fill="black"/>
<path d="M151.517 64.1034H145.69V69.931H149.514C150.068 69.931 150.54 69.7355 150.931 69.3448C151.322 68.954 151.517 68.4816 151.517 67.9277V64.1034Z" fill="black"/>
<path d="M23.3104 69.931H17.4828V75.7586H23.3104V69.931Z" fill="black"/>
<path d="M29.1379 69.931H23.3103V75.7586H29.1379V69.931Z" fill="black"/>
<path d="M34.9655 69.931H29.1379V75.7586H34.9655V69.931Z" fill="black"/>
<path d="M52.4482 73.7554C52.4482 74.3094 52.2527 74.7817 51.862 75.1724C51.4713 75.5631 50.999 75.7586 50.445 75.7586H48.6238C48.07 75.7586 47.5976 75.5631 47.2069 75.1724C46.8161 74.7817 46.6206 74.3094 46.6206 73.7554V71.9343C46.6206 71.3804 46.816 70.908 47.2068 70.5173C47.5977 70.1265 48.07 69.931 48.6238 69.931H50.445C50.999 69.931 51.4714 70.1264 51.862 70.5172C52.2527 70.9081 52.4482 71.3804 52.4482 71.9343V73.7554Z" fill="black"/>
<path d="M69.931 71.9343V69.931H66.1066C65.5527 69.931 65.0803 70.1264 64.6896 70.5172C64.2988 70.908 64.1034 71.3804 64.1034 71.9343V75.7586H69.931V71.9343Z" fill="black"/>
<path d="M75.7586 69.931H69.931V75.7586H75.7586V69.931Z" fill="black"/>
<path d="M79.5829 69.931H75.7585V75.7586H79.5829C80.1368 75.7586 80.6092 75.5632 80.9999 75.1724C81.3907 74.7817 81.5861 74.3093 81.5861 73.7554V71.9343C81.5861 71.3804 81.3907 70.908 80.9999 70.5172C80.6092 70.1265 80.1368 69.931 79.5829 69.931Z" fill="black"/>
<path d="M93.2414 71.9343V69.931H89.4171C88.8631 69.931 88.3908 70.1264 88 70.5172C87.6093 70.908 87.4138 71.3804 87.4138 71.9343V73.7554C87.4138 74.3093 87.6092 74.7817 88 75.1724C88.3908 75.5632 88.8631 75.7586 89.4171 75.7586H93.2414V71.9343Z" fill="black"/>
<path d="M99.0689 69.931H93.2413V75.7586H99.0689V69.931Z" fill="black"/>
<path d="M104.897 69.931H99.069V75.7586H104.897V69.931Z" fill="black"/>
<path d="M122.379 71.9343C122.379 71.3804 122.184 70.908 121.793 70.5172C121.402 70.1265 120.93 69.931 120.376 69.931H118.555C118.001 69.931 117.529 70.1264 117.138 70.5172C116.747 70.908 116.552 71.3804 116.552 71.9343V73.7554C116.552 73.7858 116.556 73.8313 116.563 73.892H116.552V75.7586H122.379V73.892H122.368C122.376 73.8313 122.379 73.7858 122.379 73.7554V71.9343Z" fill="black"/>
<path d="M139.862 69.931H134.034V75.7586H139.862V69.931Z" fill="black"/>
<path d="M157.345 71.9343C157.345 71.3804 157.149 70.908 156.759 70.5172C156.368 70.1265 155.895 69.931 155.342 69.931H153.52C152.967 69.931 152.494 70.1264 152.103 70.5172C151.713 70.908 151.517 71.3804 151.517 71.9343V73.7554C151.517 73.7858 151.521 73.8313 151.529 73.892H151.517V75.7586H157.345V73.892H157.333C157.341 73.8313 157.345 73.7858 157.345 73.7554V71.9343Z" fill="black"/>
<path d="M23.299 77.6252H23.3104V75.7585H17.4828V77.6252H17.4942C17.4866 77.6859 17.4828 77.7314 17.4828 77.7618V79.5829C17.4828 80.1368 17.6782 80.6092 18.069 80.9999C18.4598 81.3907 18.9321 81.5861 19.486 81.5861H21.3071C21.8611 81.5861 22.3334 81.3907 22.7242 80.9999C23.1149 80.6092 23.3104 80.1368 23.3104 79.5829V77.7618C23.3104 77.7314 23.3067 77.6859 23.299 77.6252Z" fill="black"/>
<path d="M34.9655 75.7585H29.1379V81.5861H34.9655V75.7585Z" fill="black"/>
<path d="M40.7931 75.7585H34.9655V81.5861H40.7931V75.7585Z" fill="black"/>
<path d="M44.6174 75.7585H40.7931V81.5861H44.6174C45.1714 81.5861 45.6437 81.3907 46.0345 80.9999C46.4252 80.6092 46.6207 80.1368 46.6207 79.5829V77.7618C46.6207 77.2079 46.4252 76.7355 46.0345 76.3447C45.6437 75.954 45.1714 75.7585 44.6174 75.7585Z" fill="black"/>
<path d="M58.2758 77.7618C58.2758 77.2079 58.0804 76.7355 57.6896 76.3447C57.2989 75.954 56.8265 75.7585 56.2726 75.7585H54.4515C53.8976 75.7585 53.4252 75.9539 53.0344 76.3447C52.6437 76.7355 52.4482 77.2079 52.4482 77.7618V79.5829C52.4482 79.6133 52.452 79.6588 52.4596 79.7195H52.4482V81.5861H58.2758V79.7195H58.2645C58.2722 79.6588 58.2758 79.6133 58.2758 79.5829V77.7618Z" fill="black"/>
<path d="M69.931 75.7585H64.1034V81.5861H69.931V75.7585Z" fill="black"/>
<path d="M87.4138 79.5829C87.4138 80.1369 87.2182 80.6092 86.8276 80.9999C86.4368 81.3906 85.9646 81.5861 85.4105 81.5861H83.5894C83.0356 81.5861 82.5632 81.3906 82.1724 80.9999C81.7816 80.6092 81.5862 80.1369 81.5862 79.5829V77.7618C81.5862 77.2079 81.7816 76.7355 82.1724 76.3448C82.5632 75.954 83.0356 75.7585 83.5894 75.7585H85.4105C85.9646 75.7585 86.4369 75.9539 86.8276 76.3447C87.2183 76.7356 87.4138 77.2079 87.4138 77.7618V79.5829Z" fill="black"/>
<path d="M104.885 77.6252H104.897V75.7585H99.069V77.6252H99.0803C99.0728 77.6859 99.069 77.7314 99.069 77.7618V79.5829C99.069 80.1368 99.2644 80.6092 99.6552 80.9999C100.046 81.3907 100.518 81.5861 101.072 81.5861H102.893C103.447 81.5861 103.92 81.3907 104.31 80.9999C104.701 80.6092 104.897 80.1368 104.897 79.5829V77.7618C104.897 77.7314 104.893 77.6859 104.885 77.6252Z" fill="black"/>
<path d="M122.379 75.7585H116.552V81.5861H122.379V75.7585Z" fill="black"/>
<path d="M128.207 75.7585H122.379V81.5861H128.207V75.7585Z" fill="black"/>
<path d="M134.035 75.7585H128.207V81.5861H134.035V75.7585Z" fill="black"/>
<path d="M139.862 75.7585H134.034V81.5861H139.862V75.7585Z" fill="black"/>
<path d="M145.69 75.7585H139.862V81.5861H145.69V75.7585Z" fill="black"/>
<path d="M151.517 75.7585H145.69V81.5861H151.517V75.7585Z" fill="black"/>
<path d="M157.345 75.7585H151.517V81.5861H157.345V75.7585Z" fill="black"/>
<path d="M34.9541 83.4528H34.9655V81.5862H29.1379V83.4528H29.1493C29.1417 83.5135 29.1379 83.5591 29.1379 83.5894V85.4105C29.1379 85.9644 29.3333 86.4368 29.7241 86.8276C30.1149 87.2183 30.5873 87.4138 31.1412 87.4138H32.9623C33.5162 87.4138 33.9886 87.2183 34.3793 86.8276C34.7701 86.4368 34.9655 85.9644 34.9655 85.4105V83.5894C34.9655 83.5591 34.9618 83.5135 34.9541 83.4528Z" fill="black"/>
<path d="M52.4482 83.5894V81.5862H48.6238C48.0699 81.5862 47.5975 81.7816 47.2068 82.1724C46.8161 82.5632 46.6206 83.0355 46.6206 83.5894V85.4105C46.6206 85.9644 46.816 86.4368 47.2068 86.8276C47.5976 87.2183 48.0699 87.4138 48.6238 87.4138H52.4482V83.5894Z" fill="black"/>
<path d="M58.2758 81.5862H52.4482V87.4138H58.2758V81.5862Z" fill="black"/>
<path d="M64.1035 81.5862H58.2759V87.4138H64.1035V81.5862Z" fill="black"/>
<path d="M69.931 81.5862H64.1034V87.4138H67.9277C68.4816 87.4138 68.954 87.2183 69.3448 86.8276C69.7355 86.4368 69.931 85.9644 69.931 85.4105V81.5862Z" fill="black"/>
<path d="M81.5861 85.4105C81.5861 85.9646 81.3906 86.4368 80.9999 86.8276C80.6092 87.2182 80.1369 87.4138 79.5829 87.4138H77.7618C77.2079 87.4138 76.7355 87.2182 76.3448 86.8276C75.954 86.4368 75.7585 85.9646 75.7585 85.4105V83.5894C75.7585 83.0356 75.9539 82.5632 76.3447 82.1724C76.7356 81.7816 77.2079 81.5862 77.7618 81.5862H79.5829C80.137 81.5862 80.6093 81.7816 80.9999 82.1724C81.3907 82.5632 81.5861 83.0356 81.5861 83.5894V85.4105Z" fill="black"/>
<path d="M99.0689 85.4105C99.0689 85.9646 98.8734 86.4368 98.4827 86.8276C98.092 87.2182 97.6197 87.4138 97.0657 87.4138H95.2446C94.6907 87.4138 94.2183 87.2182 93.8276 86.8276C93.4368 86.4368 93.2413 85.9646 93.2413 85.4105V83.5894C93.2413 83.0356 93.4367 82.5632 93.8275 82.1724C94.2184 81.7816 94.6907 81.5862 95.2446 81.5862H97.0657C97.6198 81.5862 98.0921 81.7816 98.4827 82.1724C98.8735 82.5632 99.0689 83.0356 99.0689 83.5894V85.4105Z" fill="black"/>
<path d="M110.724 85.4105C110.724 85.9646 110.529 86.4368 110.138 86.8276C109.747 87.2182 109.275 87.4138 108.721 87.4138H106.9C106.346 87.4138 105.873 87.2182 105.483 86.8276C105.092 86.4368 104.896 85.9646 104.896 85.4105V83.5894C104.896 83.0356 105.092 82.5632 105.483 82.1724C105.874 81.7816 106.346 81.5862 106.9 81.5862H108.721C109.275 81.5862 109.747 81.7816 110.138 82.1724C110.529 82.5632 110.724 83.0356 110.724 83.5894V85.4105Z" fill="black"/>
<path d="M122.379 81.5862H116.552V85.4105C116.552 85.9644 116.747 86.4368 117.138 86.8276C117.529 87.2183 118.001 87.4138 118.555 87.4138H122.379V81.5862Z" fill="black"/>
<path d="M128.207 81.5862H122.379V87.4138H126.204C126.758 87.4138 127.23 87.2183 127.621 86.8276C128.011 86.4368 128.207 85.9644 128.207 85.4105V81.5862Z" fill="black"/>
<path d="M157.333 83.4528H157.345V81.5862H151.517V83.4528H151.529C151.521 83.5135 151.517 83.5591 151.517 83.5894V85.4105C151.517 85.9644 151.713 86.4368 152.103 86.8276C152.494 87.2183 152.967 87.4138 153.52 87.4138H155.342C155.895 87.4138 156.368 87.2183 156.759 86.8276C157.149 86.4368 157.345 85.9644 157.345 85.4105V83.5894C157.345 83.5591 157.341 83.5135 157.333 83.4528Z" fill="black"/>
<path d="M17.4827 89.4171C17.4827 88.8631 17.2873 88.3908 16.8965 88C16.5058 87.6093 16.0334 87.4138 15.4795 87.4138H13.6584C13.1045 87.4138 12.6321 87.6092 12.2413 88C11.8506 88.3908 11.6552 88.8631 11.6552 89.4171V91.2382C11.6552 91.2685 11.6589 91.3141 11.6665 91.3748H11.6552V93.2414H17.4827V91.3748H17.4714C17.4791 91.3141 17.4827 91.2686 17.4827 91.2382V89.4171Z" fill="black"/>
<path d="M29.1379 91.2382C29.1379 91.7922 28.9424 92.2645 28.5517 92.6552C28.161 93.0459 27.6887 93.2414 27.1347 93.2414H25.3135C24.7597 93.2414 24.2873 93.0459 23.8966 92.6552C23.5058 92.2645 23.3103 91.7922 23.3103 91.2382V89.4171C23.3103 88.8632 23.5057 88.3908 23.8965 88.0001C24.2874 87.6093 24.7597 87.4138 25.3135 87.4138H27.1347C27.6887 87.4138 28.1611 87.6092 28.5517 88C28.9424 88.3909 29.1379 88.8632 29.1379 89.4171V91.2382Z" fill="black"/>
<path d="M46.6207 89.4171C46.6207 88.8631 46.4252 88.3908 46.0345 88C45.6437 87.6093 45.1714 87.4138 44.6174 87.4138H42.7963C42.2424 87.4138 41.77 87.6092 41.3793 88C40.9885 88.3908 40.7931 88.8631 40.7931 89.4171V91.2382C40.7931 91.2685 40.7969 91.3141 40.8045 91.3748H40.7931V93.2414H46.6207V91.3748H46.6093C46.617 91.3141 46.6207 91.2686 46.6207 91.2382V89.4171Z" fill="black"/>
<path d="M58.2758 87.4138H52.4482V91.2382C52.4482 91.7921 52.6436 92.2645 53.0344 92.6552C53.4252 93.046 53.8976 93.2414 54.4515 93.2414H58.2758V87.4138Z" fill="black"/>
<path d="M64.1035 87.4138H58.2759V93.2414H62.1002C62.6541 93.2414 63.1265 93.046 63.5173 92.6552C63.908 92.2645 64.1035 91.7921 64.1035 91.2382V87.4138Z" fill="black"/>
<path d="M75.7586 91.2382C75.7586 91.7922 75.5631 92.2645 75.1724 92.6552C74.7817 93.0459 74.3094 93.2414 73.7554 93.2414H71.9343C71.3804 93.2414 70.908 93.0459 70.5173 92.6552C70.1265 92.2645 69.931 91.7922 69.931 91.2382V89.4171C69.931 88.8632 70.1264 88.3908 70.5172 88.0001C70.9081 87.6093 71.3804 87.4138 71.9343 87.4138H73.7554C74.3095 87.4138 74.7818 87.6092 75.1724 88C75.5632 88.3909 75.7586 88.8632 75.7586 89.4171V91.2382Z" fill="black"/>
<path d="M87.4138 89.4171V87.4138H83.5894C83.0355 87.4138 82.5631 87.6092 82.1724 88C81.7816 88.3908 81.5862 88.8631 81.5862 89.4171V91.2382C81.5862 91.7921 81.7816 92.2645 82.1724 92.6552C82.5632 93.046 83.0355 93.2414 83.5894 93.2414H87.4138V89.4171Z" fill="black"/>
<path d="M93.2414 89.4171C93.2414 88.8631 93.046 88.3908 92.6552 88C92.2645 87.6093 91.7921 87.4138 91.2382 87.4138H87.4138V93.2414H93.2414V89.4171Z" fill="black"/>
<path d="M104.897 89.4171C104.897 88.8631 104.701 88.3908 104.31 88C103.92 87.6093 103.447 87.4138 102.893 87.4138H101.072C100.518 87.4138 100.046 87.6092 99.6552 88C99.2644 88.3908 99.069 88.8631 99.069 89.4171V91.2382C99.069 91.2685 99.0728 91.3141 99.0803 91.3748H99.069V93.2414H104.897V91.3748H104.885C104.893 91.3141 104.897 91.2686 104.897 91.2382V89.4171Z" fill="black"/>
<path d="M134.035 89.4171C134.035 88.8631 133.839 88.3908 133.448 88C133.058 87.6093 132.585 87.4138 132.031 87.4138H130.21C129.656 87.4138 129.184 87.6092 128.793 88C128.402 88.3908 128.207 88.8631 128.207 89.4171V91.2382C128.207 91.2685 128.211 91.3141 128.218 91.3748H128.207V93.2414H134.035V91.3748H134.023C134.031 91.3141 134.035 91.2686 134.035 91.2382V89.4171Z" fill="black"/>
<path d="M151.517 89.4171C151.517 88.8631 151.322 88.3908 150.931 88C150.54 87.6093 150.068 87.4138 149.514 87.4138H147.693C147.139 87.4138 146.667 87.6092 146.276 88C145.885 88.3908 145.69 88.8631 145.69 89.4171V91.2382C145.69 91.2685 145.693 91.3141 145.701 91.3748H145.69V93.2414H151.517V91.3748H151.506C151.514 91.3141 151.517 91.2686 151.517 91.2382V89.4171Z" fill="black"/>
<path d="M17.4827 93.2413H11.6552V99.0689H17.4827V93.2413Z" fill="black"/>
<path d="M21.3071 93.2413H17.4828V99.0689H21.3071C21.8611 99.0689 22.3334 98.8735 22.7242 98.4827C23.1149 98.092 23.3104 97.6196 23.3104 97.0657V95.2446C23.3104 94.6907 23.1149 94.2183 22.7242 93.8275C22.3334 93.4368 21.8611 93.2413 21.3071 93.2413Z" fill="black"/>
<path d="M40.7931 95.2446V93.2413H36.9687C36.4148 93.2413 35.9424 93.4367 35.5517 93.8275C35.1609 94.2183 34.9655 94.6907 34.9655 95.2446V97.0657C34.9655 97.6196 35.1609 98.092 35.5517 98.4827C35.9425 98.8735 36.4148 99.0689 36.9687 99.0689H40.7931V95.2446Z" fill="black"/>
<path d="M46.6207 93.2413H40.7931V99.0689H46.6207V93.2413Z" fill="black"/>
<path d="M50.445 93.2413H46.6206V99.0689H50.445C50.9989 99.0689 51.4713 98.8735 51.862 98.4827C52.2527 98.092 52.4482 97.6196 52.4482 97.0657V95.2446C52.4482 94.6907 52.2527 94.2183 51.862 93.8275C51.4713 93.4368 50.9989 93.2413 50.445 93.2413Z" fill="black"/>
<path d="M69.931 95.2446C69.931 94.6907 69.7355 94.2183 69.3448 93.8275C68.954 93.4368 68.4816 93.2413 67.9277 93.2413H66.1066C65.5527 93.2413 65.0803 93.4367 64.6896 93.8275C64.2988 94.2183 64.1034 94.6907 64.1034 95.2446V97.0657C64.1034 97.0961 64.1072 97.1416 64.1148 97.2023H64.1034V99.0689H69.931V97.2023H69.9196C69.9273 97.1416 69.931 97.0961 69.931 97.0657V95.2446Z" fill="black"/>
<path d="M93.2414 93.2413H87.4138V97.0657C87.4138 97.6196 87.6092 98.092 88 98.4827C88.3908 98.8735 88.8631 99.0689 89.4171 99.0689H93.2414V93.2413Z" fill="black"/>
<path d="M99.0689 93.2413H93.2413V99.0689H99.0689V93.2413Z" fill="black"/>
<path d="M104.897 93.2413H99.069V99.0689H104.897V93.2413Z" fill="black"/>
<path d="M116.552 97.0657C116.552 97.6197 116.356 98.092 115.966 98.4827C115.575 98.8734 115.103 99.0689 114.548 99.0689H112.727C112.174 99.0689 111.701 98.8734 111.31 98.4827C110.92 98.092 110.724 97.6197 110.724 97.0657V95.2446C110.724 94.6907 110.92 94.2183 111.31 93.8276C111.701 93.4368 112.174 93.2413 112.727 93.2413H114.548C115.103 93.2413 115.575 93.4367 115.966 93.8275C116.356 94.2184 116.552 94.6907 116.552 95.2446V97.0657Z" fill="black"/>
<path d="M134.035 93.2413H128.207V97.0657C128.207 97.6196 128.402 98.092 128.793 98.4827C129.184 98.8735 129.656 99.0689 130.21 99.0689H134.035V93.2413Z" fill="black"/>
<path d="M139.862 93.2413H134.034V99.0689H139.862V93.2413Z" fill="black"/>
<path d="M145.69 93.2413H139.862V99.0689H145.69V93.2413Z" fill="black"/>
<path d="M151.517 93.2413H145.69V99.0689H151.517V93.2413Z" fill="black"/>
<path d="M157.345 95.2446C157.345 94.6907 157.149 94.2183 156.759 93.8275C156.368 93.4368 155.895 93.2413 155.342 93.2413H151.517V99.0689H157.345V95.2446Z" fill="black"/>
<path d="M17.4827 99.069H11.6552V104.897H17.4827V99.069Z" fill="black"/>
<path d="M34.9655 101.072C34.9655 100.518 34.7701 100.046 34.3793 99.6552C33.9886 99.2644 33.5162 99.069 32.9623 99.069H31.1412C30.5873 99.069 30.1149 99.2644 29.7241 99.6552C29.3334 100.046 29.1379 100.518 29.1379 101.072V102.893C29.1379 102.924 29.1417 102.969 29.1493 103.03H29.1379V104.897H34.9655V103.03H34.9541C34.9618 102.969 34.9655 102.924 34.9655 102.893V101.072Z" fill="black"/>
<path d="M46.6207 99.069H40.7931V104.897H46.6207V99.069Z" fill="black"/>
<path d="M69.9196 100.936H69.931V99.069H64.1034V100.936H64.1148C64.1072 100.996 64.1034 101.042 64.1034 101.072V102.893C64.1034 103.447 64.2988 103.92 64.6896 104.31C65.0804 104.701 65.5527 104.897 66.1066 104.897H67.9277C68.4816 104.897 68.954 104.701 69.3448 104.31C69.7355 103.92 69.931 103.447 69.931 102.893V101.072C69.931 101.042 69.9273 100.996 69.9196 100.936Z" fill="black"/>
<path d="M87.4138 101.072C87.4138 100.518 87.2183 100.046 86.8276 99.6552C86.4368 99.2644 85.9644 99.069 85.4105 99.069H83.5894C83.0355 99.069 82.5631 99.2644 82.1724 99.6552C81.7816 100.046 81.5862 100.518 81.5862 101.072V102.893C81.5862 102.924 81.59 102.969 81.5975 103.03H81.5862V104.897H87.4138V103.03H87.4024C87.4101 102.969 87.4138 102.924 87.4138 102.893V101.072Z" fill="black"/>
<path d="M104.897 99.069H99.069V102.893C99.069 103.447 99.2644 103.92 99.6552 104.31C100.046 104.701 100.518 104.897 101.072 104.897H104.897V99.069Z" fill="black"/>
<path d="M110.724 101.072C110.724 100.518 110.529 100.046 110.138 99.6552C109.747 99.2644 109.275 99.069 108.721 99.069H104.896V104.897H110.724V101.072Z" fill="black"/>
<path d="M122.379 101.072V99.069H118.555C118.001 99.069 117.529 99.2644 117.138 99.6552C116.747 100.046 116.552 100.518 116.552 101.072V104.897H122.379V101.072Z" fill="black"/>
<path d="M128.207 101.072C128.207 100.518 128.011 100.046 127.621 99.6552C127.23 99.2644 126.758 99.069 126.204 99.069H122.379V104.897H128.207V101.072Z" fill="black"/>
<path d="M145.69 99.069H139.862V104.897H145.69V99.069Z" fill="black"/>
<path d="M157.333 100.936H157.345V99.069H151.517V100.936H151.529C151.521 100.996 151.517 101.042 151.517 101.072V102.893C151.517 103.447 151.713 103.92 152.103 104.31C152.494 104.701 152.967 104.897 153.52 104.897H155.342C155.895 104.897 156.368 104.701 156.759 104.31C157.149 103.92 157.345 103.447 157.345 102.893V101.072C157.345 101.042 157.341 100.996 157.333 100.936Z" fill="black"/>
<path d="M17.4714 106.763H17.4827V104.896H11.6552V106.763H11.6665C11.6589 106.824 11.6552 106.869 11.6552 106.9V108.721C11.6552 109.275 11.8506 109.747 12.2413 110.138C12.6321 110.529 13.1045 110.724 13.6584 110.724H15.4795C16.0334 110.724 16.5058 110.529 16.8965 110.138C17.2873 109.747 17.4827 109.275 17.4827 108.721V106.9C17.4827 106.869 17.4791 106.824 17.4714 106.763Z" fill="black"/>
<path d="M34.9541 106.763H34.9655V104.896H29.1379V106.763H29.1493C29.1417 106.824 29.1379 106.869 29.1379 106.9V108.721C29.1379 109.275 29.3333 109.747 29.7241 110.138C30.1149 110.529 30.5873 110.724 31.1412 110.724H32.9623C33.5162 110.724 33.9886 110.529 34.3793 110.138C34.7701 109.747 34.9655 109.275 34.9655 108.721V106.9C34.9655 106.869 34.9618 106.824 34.9541 106.763Z" fill="black"/>
<path d="M46.6207 104.896H40.7931V108.721C40.7931 109.275 40.9885 109.747 41.3793 110.138C41.7701 110.529 42.2424 110.724 42.7963 110.724H46.6207V104.896Z" fill="black"/>
<path d="M50.445 104.896H46.6206V110.724H50.445C50.9989 110.724 51.4713 110.529 51.862 110.138C52.2527 109.747 52.4482 109.275 52.4482 108.721V106.9C52.4482 106.346 52.2527 105.873 51.862 105.483C51.4713 105.092 50.9989 104.896 50.445 104.896Z" fill="black"/>
<path d="M64.1035 106.9C64.1035 106.346 63.908 105.873 63.5173 105.483C63.1265 105.092 62.6541 104.896 62.1002 104.896H60.2791C59.7252 104.896 59.2528 105.092 58.8621 105.483C58.4713 105.873 58.2759 106.346 58.2759 106.9V108.721C58.2759 108.751 58.2797 108.797 58.2872 108.857H58.2759V110.724H64.1035V108.857H64.0921C64.0998 108.797 64.1035 108.751 64.1035 108.721V106.9Z" fill="black"/>
<path d="M75.7586 106.9V104.896H71.9343C71.3804 104.896 70.908 105.092 70.5172 105.483C70.1265 105.873 69.931 106.346 69.931 106.9V110.724H75.7586V106.9Z" fill="black"/>
<path d="M81.5861 104.896H75.7585V110.724H81.5861V104.896Z" fill="black"/>
<path d="M87.4138 104.896H81.5862V110.724H87.4138V104.896Z" fill="black"/>
<path d="M91.2382 104.896H87.4138V110.724H91.2382C91.7921 110.724 92.2645 110.529 92.6552 110.138C93.046 109.747 93.2414 109.275 93.2414 108.721V106.9C93.2414 106.346 93.046 105.873 92.6552 105.483C92.2645 105.092 91.7921 104.896 91.2382 104.896Z" fill="black"/>
<path d="M110.724 104.896H104.896V110.724H110.724V104.896Z" fill="black"/>
<path d="M116.552 104.896H110.724V110.724H116.552V104.896Z" fill="black"/>
<path d="M122.379 104.896H116.552V110.724H122.379V104.896Z" fill="black"/>
<path d="M128.207 104.896H122.379V110.724H128.207V104.896Z" fill="black"/>
<path d="M134.035 106.9C134.035 106.346 133.839 105.873 133.448 105.483C133.058 105.092 132.585 104.896 132.031 104.896H128.207V110.724H134.035V106.9Z" fill="black"/>
<path d="M145.69 104.896H139.862V108.721C139.862 109.275 140.057 109.747 140.448 110.138C140.839 110.529 141.311 110.724 141.865 110.724H145.69V104.896Z" fill="black"/>
<path d="M151.517 106.9C151.517 106.346 151.322 105.873 150.931 105.483C150.54 105.092 150.068 104.896 149.514 104.896H145.69V110.724H151.517V106.9Z" fill="black"/>
<path d="M64.1035 110.724H58.2759V116.552H64.1035V110.724Z" fill="black"/>
<path d="M75.7586 110.724H69.931V116.552H75.7586V110.724Z" fill="black"/>
<path d="M81.5861 110.724H75.7585V116.552H79.5829C80.1368 116.552 80.6092 116.356 80.9999 115.966C81.3907 115.575 81.5861 115.102 81.5861 114.548V110.724Z" fill="black"/>
<path d="M110.724 110.724H104.896V116.552H110.724V110.724Z" fill="black"/>
<path d="M134.035 110.724H128.207V116.552H134.035V110.724Z" fill="black"/>
<path d="M151.506 112.591H151.517V110.724H145.69V112.591H145.701C145.693 112.651 145.69 112.697 145.69 112.727V114.548C145.69 115.102 145.885 115.575 146.276 115.966C146.667 116.356 147.139 116.552 147.693 116.552H149.514C150.068 116.552 150.54 116.356 150.931 115.966C151.322 115.575 151.517 115.102 151.517 114.548V112.727C151.517 112.697 151.514 112.651 151.506 112.591Z" fill="black"/>
<path d="M64.1035 116.552H58.2759V122.379H64.1035V116.552Z" fill="black"/>
<path d="M69.931 116.552H64.1034V122.379H69.931V116.552Z" fill="black"/>
<path d="M75.7586 116.552H69.931V122.379H75.7586V116.552Z" fill="black"/>
<path d="M87.4138 118.555V116.552H83.5894C83.0355 116.552 82.5631 116.747 82.1724 117.138C81.7816 117.529 81.5862 118.001 81.5862 118.555V120.376C81.5862 120.93 81.7816 121.402 82.1724 121.793C82.5632 122.184 83.0355 122.379 83.5894 122.379H87.4138V118.555Z" fill="black"/>
<path d="M93.2414 118.555C93.2414 118.001 93.046 117.529 92.6552 117.138C92.2645 116.747 91.7921 116.552 91.2382 116.552H87.4138V122.379H93.2414V118.555Z" fill="black"/>
<path d="M110.724 116.552H104.896V122.379H110.724V116.552Z" fill="black"/>
<path d="M122.379 120.376C122.379 120.93 122.184 121.402 121.793 121.793C121.402 122.184 120.93 122.379 120.376 122.379H118.555C118.001 122.379 117.529 122.184 117.138 121.793C116.747 121.402 116.552 120.93 116.552 120.376V118.555C116.552 118.001 116.747 117.529 117.138 117.138C117.529 116.747 118.001 116.552 118.555 116.552H120.376C120.93 116.552 121.403 116.747 121.793 117.138C122.184 117.529 122.379 118.001 122.379 118.555V120.376Z" fill="black"/>
<path d="M134.035 116.552H128.207V122.379H134.035V116.552Z" fill="black"/>
<path d="M137.859 116.552H134.034V122.379H137.859C138.413 122.379 138.885 122.184 139.276 121.793C139.666 121.402 139.862 120.93 139.862 120.376V118.555C139.862 118.001 139.666 117.529 139.276 117.138C138.885 116.747 138.413 116.552 137.859 116.552Z" fill="black"/>
<path d="M157.345 118.555C157.345 118.001 157.149 117.529 156.759 117.138C156.368 116.747 155.895 116.552 155.342 116.552H153.52C152.967 116.552 152.494 116.747 152.103 117.138C151.713 117.529 151.517 118.001 151.517 118.555V120.376C151.517 120.407 151.521 120.452 151.529 120.513H151.517V122.379H157.345V120.513H157.333C157.341 120.452 157.345 120.407 157.345 120.376V118.555Z" fill="black"/>
<path d="M64.1035 122.379H58.2759V128.207H64.1035V122.379Z" fill="black"/>
<path d="M75.7586 122.379H69.931V126.204C69.931 126.758 70.1264 127.23 70.5172 127.621C70.908 128.011 71.3804 128.207 71.9343 128.207H75.7586V122.379Z" fill="black"/>
<path d="M81.5861 124.383C81.5861 123.829 81.3907 123.356 80.9999 122.966C80.6092 122.575 80.1368 122.379 79.5829 122.379H75.7585V128.207H81.5861V124.383Z" fill="black"/>
<path d="M93.23 124.246H93.2414V122.379H87.4138V124.246H87.4252C87.4176 124.307 87.4138 124.352 87.4138 124.383V126.204C87.4138 126.758 87.6092 127.23 88 127.621C88.3908 128.011 88.8631 128.207 89.4171 128.207H91.2382C91.7921 128.207 92.2645 128.011 92.6552 127.621C93.046 127.23 93.2414 126.758 93.2414 126.204V124.383C93.2414 124.352 93.2377 124.307 93.23 124.246Z" fill="black"/>
<path d="M104.897 124.383V122.379H101.072C100.518 122.379 100.046 122.575 99.6552 122.966C99.2644 123.356 99.069 123.829 99.069 124.383V128.207H104.897V124.383Z" fill="black"/>
<path d="M110.724 122.379H104.896V128.207H110.724V122.379Z" fill="black"/>
<path d="M134.035 122.379H128.207V128.207H134.035V122.379Z" fill="black"/>
<path d="M157.333 124.246H157.345V122.379H151.517V124.246H151.529C151.521 124.307 151.517 124.352 151.517 124.383V126.204C151.517 126.758 151.713 127.23 152.103 127.621C152.494 128.011 152.967 128.207 153.52 128.207H155.342C155.895 128.207 156.368 128.011 156.759 127.621C157.149 127.23 157.345 126.758 157.345 126.204V124.383C157.345 124.352 157.341 124.307 157.333 124.246Z" fill="black"/>
<path d="M64.1035 128.207H58.2759V134.035H64.1035V128.207Z" fill="black"/>
<path d="M81.5861 128.207H75.7585V132.031C75.7585 132.585 75.9539 133.058 76.3447 133.448C76.7355 133.839 77.2079 134.035 77.7618 134.035H81.5861V128.207Z" fill="black"/>
<path d="M87.4138 130.21C87.4138 129.656 87.2183 129.184 86.8276 128.793C86.4368 128.402 85.9644 128.207 85.4105 128.207H81.5862V134.035H87.4138V130.21Z" fill="black"/>
<path d="M99.0689 130.21V128.207H95.2446C94.6907 128.207 94.2183 128.402 93.8275 128.793C93.4368 129.184 93.2413 129.656 93.2413 130.21V134.035H99.0689V130.21Z" fill="black"/>
<path d="M104.897 128.207H99.069V134.035H104.897V128.207Z" fill="black"/>
<path d="M110.724 128.207H104.896V134.035H110.724V128.207Z" fill="black"/>
<path d="M116.552 128.207H110.724V134.035H116.552V128.207Z" fill="black"/>
<path d="M122.379 128.207H116.552V134.035H122.379V128.207Z" fill="black"/>
<path d="M128.207 128.207H122.379V134.035H128.207V128.207Z" fill="black"/>
<path d="M134.035 128.207H128.207V134.035H134.035V128.207Z" fill="black"/>
<path d="M139.862 130.21C139.862 129.656 139.666 129.184 139.276 128.793C138.885 128.402 138.413 128.207 137.859 128.207H134.034V134.035H139.862V130.21Z" fill="black"/>
<path d="M64.1035 134.034H58.2759V137.859C58.2759 138.413 58.4713 138.885 58.8621 139.276C59.2529 139.666 59.7252 139.862 60.2791 139.862H64.1035V134.034Z" fill="black"/>
<path d="M67.9277 134.034H64.1034V139.862H67.9277C68.4816 139.862 68.954 139.666 69.3448 139.276C69.7355 138.885 69.931 138.413 69.931 137.859V136.038C69.931 135.484 69.7355 135.011 69.3448 134.621C68.954 134.23 68.4816 134.034 67.9277 134.034Z" fill="black"/>
<path d="M87.4138 134.034H81.5862V137.859C81.5862 138.413 81.7816 138.885 82.1724 139.276C82.5632 139.666 83.0355 139.862 83.5894 139.862H87.4138V134.034Z" fill="black"/>
<path d="M93.2414 134.034H87.4138V139.862H93.2414V134.034Z" fill="black"/>
<path d="M99.0689 134.034H93.2413V139.862H97.0657C97.6196 139.862 98.092 139.666 98.4827 139.276C98.8735 138.885 99.0689 138.413 99.0689 137.859V134.034Z" fill="black"/>
<path d="M116.552 134.034H110.724V139.862H116.552V134.034Z" fill="black"/>
<path d="M122.379 134.034H116.552V139.862H120.376C120.93 139.862 121.402 139.666 121.793 139.276C122.184 138.885 122.379 138.413 122.379 137.859V134.034Z" fill="black"/>
<path d="M139.851 135.901H139.862V134.034H134.034V135.901H134.046C134.038 135.962 134.034 136.007 134.034 136.038V137.859C134.034 138.413 134.23 138.885 134.621 139.276C135.011 139.666 135.484 139.862 136.038 139.862H137.859C138.413 139.862 138.885 139.666 139.276 139.276C139.666 138.885 139.862 138.413 139.862 137.859V136.038C139.862 136.007 139.858 135.962 139.851 135.901Z" fill="black"/>
<path d="M151.517 136.038V134.034H147.693C147.139 134.034 146.667 134.23 146.276 134.621C145.885 135.011 145.69 135.484 145.69 136.038V139.862H151.517V136.038Z" fill="black"/>
<path d="M157.345 136.038C157.345 135.484 157.149 135.011 156.759 134.621C156.368 134.23 155.895 134.034 155.342 134.034H151.517V139.862H157.345V136.038Z" fill="black"/>
<path d="M81.5861 143.686C81.5861 144.24 81.3906 144.713 80.9999 145.103C80.6092 145.494 80.1369 145.69 79.5829 145.69H77.7618C77.2079 145.69 76.7355 145.494 76.3448 145.103C75.954 144.713 75.7585 144.24 75.7585 143.686V141.865C75.7585 141.311 75.9539 140.839 76.3447 140.448C76.7356 140.058 77.2079 139.862 77.7618 139.862H79.5829C80.137 139.862 80.6093 140.057 80.9999 140.448C81.3907 140.839 81.5861 141.311 81.5861 141.865V143.686Z" fill="black"/>
<path d="M110.724 141.865V139.862H106.9C106.346 139.862 105.873 140.057 105.483 140.448C105.092 140.839 104.896 141.311 104.896 141.865V143.686C104.896 144.24 105.092 144.713 105.483 145.103C105.873 145.494 106.346 145.69 106.9 145.69H110.724V141.865Z" fill="black"/>
<path d="M116.552 139.862H110.724V145.69H116.552V139.862Z" fill="black"/>
<path d="M128.207 141.865V139.862H124.383C123.829 139.862 123.356 140.057 122.966 140.448C122.575 140.839 122.379 141.311 122.379 141.865V145.69H128.207V141.865Z" fill="black"/>
<path d="M134.035 141.865C134.035 141.311 133.839 140.839 133.448 140.448C133.058 140.058 132.585 139.862 132.031 139.862H128.207V145.69H134.035V141.865Z" fill="black"/>
<path d="M145.69 141.865V139.862H141.865C141.311 139.862 140.839 140.057 140.448 140.448C140.058 140.839 139.862 141.311 139.862 141.865V145.69H145.69V141.865Z" fill="black"/>
<path d="M151.517 139.862H145.69V145.69H151.517V139.862Z" fill="black"/>
<path d="M157.345 139.862H151.517V145.69H157.345V139.862Z" fill="black"/>
<path d="M69.931 147.693C69.931 147.139 69.7355 146.667 69.3448 146.276C68.954 145.885 68.4816 145.69 67.9277 145.69H66.1066C65.5527 145.69 65.0803 145.885 64.6896 146.276C64.2988 146.667 64.1034 147.139 64.1034 147.693V149.514C64.1034 149.544 64.1072 149.59 64.1148 149.651H64.1034V151.517H69.931V149.651H69.9196C69.9273 149.59 69.931 149.544 69.931 149.514V147.693Z" fill="black"/>
<path d="M99.0689 149.514C99.0689 150.068 98.8734 150.54 98.4827 150.931C98.092 151.322 97.6197 151.517 97.0657 151.517H95.2446C94.6907 151.517 94.2183 151.322 93.8276 150.931C93.4368 150.54 93.2413 150.068 93.2413 149.514V147.693C93.2413 147.139 93.4367 146.667 93.8275 146.276C94.2184 145.885 94.6907 145.69 95.2446 145.69H97.0657C97.6198 145.69 98.0921 145.885 98.4827 146.276C98.8735 146.667 99.0689 147.139 99.0689 147.693V149.514Z" fill="black"/>
<path d="M116.54 147.556H116.552V145.69H110.724V147.556H110.735C110.728 147.617 110.724 147.663 110.724 147.693V149.514C110.724 150.068 110.92 150.54 111.31 150.931C111.701 151.322 112.173 151.517 112.727 151.517H114.548C115.102 151.517 115.575 151.322 115.966 150.931C116.356 150.54 116.552 150.068 116.552 149.514V147.693C116.552 147.663 116.548 147.617 116.54 147.556Z" fill="black"/>
<path d="M128.207 145.69H122.379V149.514C122.379 150.068 122.575 150.54 122.966 150.931C123.356 151.322 123.829 151.517 124.383 151.517H128.207V145.69Z" fill="black"/>
<path d="M134.035 145.69H128.207V151.517H132.031C132.585 151.517 133.058 151.322 133.448 150.931C133.839 150.54 134.035 150.068 134.035 149.514V145.69Z" fill="black"/>
<path d="M145.69 145.69H139.862V149.514C139.862 150.068 140.057 150.54 140.448 150.931C140.839 151.322 141.311 151.517 141.865 151.517H145.69V145.69Z" fill="black"/>
<path d="M151.517 145.69H145.69V151.517H151.517V145.69Z" fill="black"/>
<path d="M157.345 145.69H151.517V151.517H157.345V145.69Z" fill="black"/>
<path d="M64.1035 153.52V151.517H60.2791C59.7252 151.517 59.2528 151.713 58.8621 152.103C58.4713 152.494 58.2759 152.967 58.2759 153.52V155.342C58.2759 155.895 58.4713 156.368 58.8621 156.759C59.2529 157.149 59.7252 157.345 60.2791 157.345H64.1035V153.52Z" fill="black"/>
<path d="M69.931 151.517H64.1034V157.345H67.9277C68.4816 157.345 68.954 157.149 69.3448 156.759C69.7355 156.368 69.931 155.895 69.931 155.342V151.517Z" fill="black"/>
<path d="M81.5861 153.52V151.517H77.7618C77.2079 151.517 76.7355 151.713 76.3447 152.103C75.954 152.494 75.7585 152.967 75.7585 153.52V155.342C75.7585 155.895 75.9539 156.368 76.3447 156.759C76.7355 157.149 77.2079 157.345 77.7618 157.345H81.5861V153.52Z" fill="black"/>
<path d="M85.4105 151.517H81.5862V157.345H85.4105C85.9644 157.345 86.4368 157.149 86.8276 156.759C87.2183 156.368 87.4138 155.895 87.4138 155.342V153.52C87.4138 152.967 87.2183 152.494 86.8276 152.103C86.4368 151.713 85.9644 151.517 85.4105 151.517Z" fill="black"/>
<path d="M110.724 155.342C110.724 155.896 110.529 156.368 110.138 156.759C109.747 157.149 109.275 157.345 108.721 157.345H106.9C106.346 157.345 105.873 157.149 105.483 156.759C105.092 156.368 104.896 155.896 104.896 155.342V153.52C104.896 152.967 105.092 152.494 105.483 152.103C105.874 151.713 106.346 151.517 106.9 151.517H108.721C109.275 151.517 109.747 151.713 110.138 152.103C110.529 152.494 110.724 152.967 110.724 153.52V155.342Z" fill="black"/>
<path d="M122.379 155.342C122.379 155.896 122.184 156.368 121.793 156.759C121.402 157.149 120.93 157.345 120.376 157.345H118.555C118.001 157.345 117.529 157.149 117.138 156.759C116.747 156.368 116.552 155.896 116.552 155.342V153.52C116.552 152.967 116.747 152.494 117.138 152.103C117.529 151.713 118.001 151.517 118.555 151.517H120.376C120.93 151.517 121.403 151.713 121.793 152.103C122.184 152.494 122.379 152.967 122.379 153.52V155.342Z" fill="black"/>
<path d="M139.862 155.342C139.862 155.896 139.666 156.368 139.276 156.759C138.885 157.149 138.413 157.345 137.859 157.345H136.038C135.484 157.345 135.011 157.149 134.621 156.759C134.23 156.368 134.034 155.896 134.034 155.342V153.52C134.034 152.967 134.23 152.494 134.621 152.103C135.011 151.713 135.484 151.517 136.038 151.517H137.859C138.413 151.517 138.885 151.713 139.276 152.103C139.666 152.494 139.862 152.967 139.862 153.52V155.342Z" fill="black"/>
<path d="M157.333 153.384H157.345V151.517H151.517V153.384H151.529C151.521 153.445 151.517 153.49 151.517 153.52V155.342C151.517 155.895 151.713 156.368 152.103 156.759C152.494 157.149 152.967 157.345 153.52 157.345H155.342C155.895 157.345 156.368 157.149 156.759 156.759C157.149 156.368 157.345 155.895 157.345 155.342V153.52C157.345 153.49 157.341 153.445 157.333 153.384Z" fill="black"/>
<path d="M38.5211 11.6583H25.5823C19.2765 11.6583 13.9343 15.8245 12.2263 21.5188C12.0496 22.1079 11.9117 22.7133 11.8159 23.3321C11.7102 24.015 11.6552 24.7142 11.6552 25.426V38.6719C11.6552 46.2672 17.9047 52.4437 25.5823 52.4437L32.0517 52.4449L38.5211 52.4433C46.1983 52.4433 52.4482 46.2668 52.4482 38.6715V25.426C52.4482 17.8344 46.1987 11.6583 38.5211 11.6583ZM46.3293 38.6719C46.3293 42.8916 42.8268 46.3247 38.5194 46.3247L32.0517 46.3259L25.584 46.3243C21.2766 46.3243 17.7741 42.8911 17.7741 38.6719V25.426C17.7741 24.108 18.116 22.867 18.7177 21.7828C19.2969 20.7397 20.1165 19.8426 21.1032 19.1634C22.3719 18.2901 23.9167 17.7773 25.5819 17.7773H38.5211C42.8268 17.7773 46.3293 21.2084 46.3293 25.426V38.6719Z" fill="black"/>
<path d="M143.418 11.6583H130.479C124.173 11.6583 118.831 15.8245 117.123 21.5188C116.946 22.1079 116.808 22.7133 116.712 23.3321C116.607 24.015 116.552 24.7142 116.552 25.426V38.6719C116.552 46.2672 122.801 52.4437 130.479 52.4437L136.948 52.4449L143.418 52.4433C151.095 52.4433 157.345 46.2668 157.345 38.6715V25.426C157.345 17.8344 151.095 11.6583 143.418 11.6583ZM151.226 38.6719C151.226 42.8916 147.723 46.3247 143.416 46.3247L136.948 46.3259L130.481 46.3243C126.173 46.3243 122.671 42.8911 122.671 38.6719V25.426C122.671 24.108 123.013 22.867 123.614 21.7828C124.194 20.7397 125.013 19.8426 126 19.1634C127.269 18.2901 128.813 17.7773 130.479 17.7773H143.418C147.723 17.7773 151.226 21.2084 151.226 25.426V38.6719Z" fill="black"/>
<path d="M38.5211 116.555H25.5823C19.2765 116.555 13.9343 120.721 12.2263 126.415C12.0496 127.004 11.9117 127.61 11.8159 128.229C11.7102 128.912 11.6552 129.611 11.6552 130.323V143.569C11.6552 151.164 17.9047 157.34 25.5823 157.34L32.0517 157.342L38.5211 157.34C46.1983 157.34 52.4482 151.163 52.4482 143.568V130.323C52.4482 122.731 46.1987 116.555 38.5211 116.555ZM46.3293 143.569C46.3293 147.788 42.8268 151.221 38.5194 151.221L32.0517 151.223L25.584 151.221C21.2766 151.221 17.7741 147.788 17.7741 143.569V130.323C17.7741 129.005 18.116 127.764 18.7177 126.679C19.2969 125.636 20.1165 124.739 21.1032 124.06C22.3719 123.187 23.9167 122.674 25.5819 122.674H38.5211C42.8268 122.674 46.3293 126.105 46.3293 130.323V143.569Z" fill="black"/>
<path d="M31.8803 40.4503C36.6133 40.4503 40.4503 36.6133 40.4503 31.8803C40.4503 27.1472 36.6133 23.3103 31.8803 23.3103C27.1472 23.3103 23.3103 27.1472 23.3103 31.8803C23.3103 36.6133 27.1472 40.4503 31.8803 40.4503Z" fill="black"/>
<path d="M136.777 40.4503C141.51 40.4503 145.347 36.6133 145.347 31.8803C145.347 27.1472 141.51 23.3103 136.777 23.3103C132.044 23.3103 128.207 27.1472 128.207 31.8803C128.207 36.6133 132.044 40.4503 136.777 40.4503Z" fill="black"/>
<path d="M31.8803 145.347C36.6133 145.347 40.4503 141.51 40.4503 136.777C40.4503 132.044 36.6133 128.207 31.8803 128.207C27.1472 128.207 23.3103 132.044 23.3103 136.777C23.3103 141.51 27.1472 145.347 31.8803 145.347Z" fill="black"/>
</svg>
