<svg xmlns="http://www.w3.org/2000/svg" viewBox="0 0 466.8 662.04"><defs><style>.cls-1{fill:#fff;}</style></defs><g id="Layer_2" data-name="Layer 2"><g id="Layer_1-2" data-name="Layer 1"><path d="M352.52,316.15c-3.65,12.06-11.08,19.3-23,21.76-.89.19-1.89,1.63-2.19,2.68-3.79,13.28-15.22,19.46-29,15.55-2.09,8.15,3.24,14,11.78,16.67,13.3,4.18,26.81,7.78,40.32,11.26,17.56,4.52,35.13,9.12,52.86,12.89,21.44,4.57,38.17,15.19,50.19,33.85A105.13,105.13,0,0,1,466,456.23c2,6.49.46,9.37-6.25,10.31a23.93,23.93,0,0,1-3.49.17c-7.23,0-7.71.12-8.35,7.47-2,23.38-4.14,46.75-5.66,70.17-1,15.43-1.13,30.93-1.4,46.4A82.36,82.36,0,0,0,442,604.12c1.06,7.16-2.51,15.11-9.42,16-15.87,2.13-28.09,12.49-42.6,17.36-18.74,6.29-37.52,12.77-56.74,17.21-33.91,7.83-68.39,6.58-102.79,3.12-11-1.1-22.06-3.61-33-3.35-13.22.31-26.38,2.85-39.56,4.49-8.08,1-16.13,2.64-24.24,3-5.7.27-11.54-.81-17.23-1.84-4.78-.87-7-4.63-8.27-9.09-.36-1.23-1.73-2.19-2.68-3.23-4.81-5.29-11.48-9-13.75-16.47a11.25,11.25,0,0,0-2.38-4c-3-3.33-7.05-6.07-9.06-9.89-1.73-3.31-1.94-7.89-1.41-11.71.23-1.62,4.08-2.74,6.49-4.21l-2.7-16.78a18.14,18.14,0,0,0-1.94,2.52c-5,9.76-10,19.57-15,29.31a17.6,17.6,0,0,1-2.76,3.13c-.93-1.25-2.51-2.43-2.67-3.78-.67-5.6-1-11.25-1.3-16.89q-1.32-28.42-2.47-56.85c-.53-13.14-.88-26.29-1.42-39.43C53.4,463.36,51.71,424,50.16,384.55c-.26-6.44,0-12.9,0-19.92-3.43,1.81-6.82,3.4-10,5.3-10.46,6.16-20.75,12.61-31.36,18.48-1.95,1.08-6,1-7.51-.34C-1.42,385.73.72,383,3,380.94c6.73-6.12,13.05-12.79,20.27-18.26,7.4-5.62,15.8-9.9,23.5-15.15,2.07-1.4,3.61-4,4.63-6.43,3.47-8.22,6.22-16.75,10-24.83,4.4-9.52,12.53-16,21-21.53,4-2.58,9.39-3,14.23-4.17,6.25-1.46,12.71-2.2,18.83-4.07,7.46-2.28,14.7-5.32,21.95-8.24,1.29-.52,3.19-2.21,3-3.05a6.22,6.22,0,0,0-3-3.66c-3.05-1.68-6.36-2.88-9.52-4.37-5.34-2.51-7.87-6.84-8.36-12.66-.11-1.34-1-3.23-2.07-3.77-12.68-6.42-15.48-13.39-10.5-26.77a19.47,19.47,0,0,0,.5-2.08,14.2,14.2,0,0,0-2.37-1C90.86,218.2,89,207,91.24,197.64c.94-3.81-.13-5.33-3.14-7.07C80.2,186,71.7,182,64.88,176.1c-7.84-6.78-14.2-15.29-21-23.21-.9-1-.76-3-1.1-4.49,1.69.08,3.52-.24,5.05.3,11.58,4.09,23.08,8.4,34.65,12.52a22,22,0,0,0,5,.63c-1.1-6.3-2.84-12.12-2.87-17.95,0-3.64,1.85-7.82,4.13-10.79,2.94-3.85,4.19-6.78.48-10.67-1.43-1.5-2.21-3.62-3.64-6.08-1.68,3.56-3.07,6.64-4.58,9.67-2.21,4.43-4.66,5.38-8.5,2.48-6-4.55-11.69-9.6-18.13-14.95-3.27,2.24-7.54,5-11.61,8.08-.81.61-1.15,2.2-1.22,3.37-.33,5.13-3.38,8.21-8.64,8.26-3.75,0-4.52-2.85-4.95-5.69-.79-5.13,1.85-7.18,5.61-9.48,5.35-3.27,9.74-8.15,14.27-12.63.47-.48-.74-3-1.49-4.32-2.85-5.25-6.15-10.27-8.68-15.66C34.37,78.64,35.93,75.42,43.08,73c12.62-4.34,24.85-4.25,36.29,3.62,1.49,1,3.07,1.94,4,2.51,4-2.64,7.74-4.87,11.13-7.57,1-.78,1.15-2.89,1.23-4.41C96.2,57.35,100.88,51.79,110,51c2.68-.25,5.46.72,9,1.25,2.64-3.84,7.42-4.21,12.36-3.55,2.58.34,3.85-.23,4.79-2.83,7.44-20.49,31.26-34.86,56.45-30.65,8.92,1.49,16.26,6.63,22.84,13.51C223,20,232.54,18.27,243.23,20.37c1.06.21,2.92-1.07,3.63-2.16,1.71-2.63,2.76-5.7,4.44-8.36,8.48-13.37,27.22-13.1,35.1.61,2.54,4.42,4.73,6.52,10.46,4.4,6.86-2.53,14.8,2.71,19.93,11.71,2.37-1.8,4.61-3.74,7.08-5.32,12-7.63,34.42-7.3,44.7,6.25,6.91,9.11,11.71,19,7,31-.38,1,.95,3.72,1.71,3.81,11,1.33,16,7.88,16.13,18.87,1.46-.19,2.55-.28,3.62-.48C406.21,79,412.84,83,418,90.22A67.32,67.32,0,0,1,430.82,129c.19,12.37-.32,24.69-7.48,35.58a8,8,0,0,0-.6,2.42c3.85,2.19,7.78,4,11.26,6.47,8.78,6.21,14.26,14.94,17,25.17,3.86,14.55-.43,27.08-11.31,37.09-4.06,3.73-9.18,6.4-14.07,9.09a8.69,8.69,0,0,0-4.61,5.12c-3.1,8.16-2.41,14,5.43,19.76,7.45,5.48,7,10.12.33,16.53-3.76,3.62-8.66,6-12.81,9.29a8.06,8.06,0,0,0-2.95,4.74,47.55,47.55,0,0,0,.23,10,8.77,8.77,0,0,0,1.58,4.41A8.82,8.82,0,0,1,411.72,327a8,8,0,0,1-11.61-.31c-2.09-2.16-3.27-4.45-1.38-7.56,3.8-6.25-1-10.66-4.46-14.31-1.94-2-6.82-2.64-9.86-1.86-2.8.71-5.05,4-7.29,6.38C370.46,316.39,362.47,318.79,352.52,316.15ZM296.63,203.74l.81,1.39c0,1.61-.06,3.22,0,4.83.24,5.43,1.31,10.54,5.31,14.65,5.32,5.5,10.81,10.88,15.76,16.7q17.13,20.16,33.72,40.76c2.8,3.49,4.52,7.83.21,12.4l-41.59-22.13c-12.25,22-19.17,44.44-16,69.21.79,6.11,6.78,10.2,13.54,9.95,5.82-.22,11.94-5.5,12.67-10.95.35-2.68.06-4.67-3.21-5.68a20.93,20.93,0,0,1-7.18-4.31c-1-.89-1.07-2.92-1.56-4.44,16.08,9.07,28.85,6.68,37-6.72,2.43-4,2.17-6.46-1.95-8.95-2.59-1.55-6.14-3-5.36-8.47a48.76,48.76,0,0,1,4.92,3.66c10.08,9.8,25.28,8.39,32.49-3.08-7.58-2.32-8.44-3.47-7.49-11.81a58.33,58.33,0,0,1,2.3-9.67c4-13.67,22.28-28.93,39.4-23.39,1,.32,3,.4,3.19,0,1.28-3.16,2.69-6.41,3-9.74.12-1.19-2.4-2.95-4-4a81,81,0,0,0-8-4.1c-3.89-1.87-3.31-3.93-.36-6.38,6.21,4.87,13,8.14,20.85,6,10.77-2.9,22.28-14.18,21.24-28.62-.49-6.77-1.55-13.13-5.33-18.95-6.14-9.45-14-16.44-25.48-18.17-10-1.51-16.36,3.26-18.63,13.47-.19.84-.89,1.56-1.81,3.1-.73-1.7-1.71-2.85-1.46-3.57,1.91-5.33,4.07-10.58,6.11-15.76l-29.17-21c-1.14,1.92-4.86,5.29-4.39,7.91,1.55,8.74-2.43,13.59-9.2,17,.37,4.12,1.14,7.92,1,11.69-.63,12.87-15.45,22.11-26.9,16.83-1.36-.63-2.2-2.4-3.27-3.64,1.71-.23,3.7-1.13,5.1-.57,7.15,2.84,19.45-.41,19.54-11.17,0-4.1-.85-8.23-1.49-12.31-.51-3.25-.6-5.38,3.75-6.38,5.87-1.36,8.29-6.62,5.56-10.4-1-1.44-2.9-2.29-5.26-4.07a50.71,50.71,0,0,0,5.33-1.38c3.14-1.24,6.81-2.74,6-6.82-1.59-8-.76-15.67.61-23.62,1.41-8.16,3.32-15.92,7.77-23,1-1.58,1.94-3.19,2.79-4.58-4.76-.28-9.09-.21-13.28-.93-1.62-.28-2.92-2.34-4.37-3.59,1.76-.39,3.75-1.52,5.25-1.06,8,2.45,13.83-1.21,19.5-6,2.8-2.37,2.92-4.92,1.3-8-3.63-6.85-10-7.58-16.7-7.65-4.14,0-8.28,0-12.42,0-.06-.67-.11-1.33-.17-2,2.08-.75,4.13-1.55,6.22-2.25,6.78-2.26,8.72-4.31,8.87-11.5a30.12,30.12,0,0,0-8.48-22.17C348.81,15.35,322,17.31,316.08,37.36c-.1.35-.59.58-1,1-3.26-9.08-6.2-18.48-18.16-18.39-8.92.08-12,6.2-12.47,15.63-2.71-5.49-2.6-9.24-.19-13,.73-1.16,1.55-2.79,1.28-4C284,11.85,273.31,5.23,266.48,6.08c-10.45,1.29-13,9.71-16.31,17.48-1,2.3-1.79,4.67-2.9,7.59-5.21-7.32-12.6-9.65-20.31-6.34-7.34,3.14-10.52,9.92-13.17,17.24A21.44,21.44,0,0,1,213,36c-.09-1.51,0-4-.76-4.36-7.61-3.61-15.1-8.08-23.18-9.95-11.5-2.67-22.67.54-33.16,6s-15.87,13.78-16.06,25.57a48.07,48.07,0,0,1-.58,5.3c-3.72-2.15-7-5.54-10.36-5.57s-6.92,3.2-10.73,5.18c-4.54-4.92-9.93-4.42-15,1.83-3.48,4.34-1.76,8.91-1.4,13.41.4,4.87-.49,5.86-4.94,4.55-5.76-1.7-9.37,1.33-9,7.52.51,8.46.91,16.93,1.52,25.38.42,6,2.82,11,8.43,14.52a19.79,19.79,0,0,0,.71-6.7c-.25-8.09,2.88-14.34,9.12-16.78,2.8-1.1,4-2.39,4.69-5.43,2.18-9.91,12-15.88,20.64-12.65,2.68,1,4.89,3.23,7.54,5.06,2.39-8.44,6.93-15.11,16.14-16.38,8.92-1.22,16,3,21.76,9.67a15,15,0,0,1,2.5-1.67c5.87-2.14,11.65-4.7,17.7-6.14,3.88-.93,6.7,2.13,7.58,5.79.64,2.67,1.81,6.09-1.85,8.21-4.82-10.46-10.06-12.24-18.79-6.23-3.35,2.31-6.19,5.35-9.38,8.15a22.58,22.58,0,0,0-1.38-2.63c-3.05-4.35-5.81-9-11.43-10.59-8.13-2.35-15.27,1.43-18.56,9.95-2.73,7.1-2.59,6.86-8.82,3.05a16.08,16.08,0,0,0-8.78-2.43c-7.08.44-10.39,4.06-12.58,11.5-.51,1.76-1.8,4.07-3.29,4.63-7.51,2.79-10.37,6.32-10.2,14.41.09,3.92.73,7.83,1,10.57-3.76,2.54-8.3,4.05-10.05,7.14-3.55,6.25-3.1,13.53-1.06,20.4,1.85,6.23,6.71,8.71,12.83,10.09,7.55,1.69,14.9,4.28,23.15,6.73v-11.5c2.65,1.92,4.35,3,5.92,4.32,9.06,7.46,18.84,7.7,28.24.63,1.73-1.3,3.43-2.64,5.15-4,4.55-3.51,5.48-3.5,7.57,1.71,7.3,18.19,30.09,21.57,43.68,15.13,6.47-3.07,12.31-7.47,17.73-10.82,4.19,5.16,8.15,11.12,13.18,16,6.56,6.34,14.16,11.59,21,17.7C278,209.89,286.51,214.33,296.63,203.74ZM219.75,380.06c-3.13,2-5.26,4.22-7.8,4.89-13.09,3.43-26.35,5.86-40,4-7.67-1-8.62-.83-10.67,6.61a260.83,260.83,0,0,0-6.63,29c-1.56,10.11-3.3,20.52-2.46,30.6,1.79,21.5,5.47,42.84,7.87,64.31,2.58,23,4.55,46.06,6.9,69.07a11.73,11.73,0,0,0,2.12,5.92c7,8.74,15.11,15.11,27.3,16.26,22.38,2.11,44.12.88,65.21-7.38,12.55-4.92,25-10,37.69-14.63,16.1-5.86,32.38-11.24,48.49-17.07,1.34-.48,2.69-2.69,2.91-4.25,1.17-8.38,1.42-16.93,3-25.22,4.43-22.82,5.88-46.18,13.19-68.5,7.63-23.27,11.9-47.14,8.94-71.78a6.59,6.59,0,0,0-3.25-4.61c-7.1-2.83-14.36-5.27-21.64-7.65-15.8-5.18-31.81-9.78-47.39-15.58-5.37-2-8.4-1.13-12.27,2.34-11,9.88-22.17,19.68-33.68,29-7.32,5.94-15.83,7.77-24.72,3.12-9.16-4.79-13.45-12.52-13.15-22.84C219.79,384.09,219.75,382.47,219.75,380.06Zm-79.3,263.65c-8.06,5.3-17.82,2.23-26.75,4.85,2,4.92,5.86,6.45,10,7,14.34,1.94,28.58.53,42.59-2.53,12.75-2.78,25.47-5.17,38.57-4,12.42,1.14,24.79,3.09,37.23,3.65,17.12.76,34.28.65,51.43.74a190.15,190.15,0,0,0,53.68-7.38c11.32-3.26,22.29-7.76,33.53-11.34C391.4,631.35,402,628,410.7,620.55a13.21,13.21,0,0,1,3.56-1.58c5.17-2.16,10.58-3.88,15.43-6.6,4.21-2.37,6.41-6.57,6.53-11.67.56-22.94,1.11-45.89,1.79-68.84.46-15.47.9-30.95,1.82-46.4.38-6.37,2-12.68,3.1-19.51-4.11,0-8-.58-11.6.09-23.64,4.39-42.75,16.84-59.27,33.83-5.59,5.74-8.71,11.89-5.29,20a32,32,0,0,1,1.37,5.82c2.88,13.62,5.62,27.28,8.8,40.83.38,1.65,2.88,3.39,4.74,4,6.33,2,12.83,3.49,19.22,5.3,2.53.72,5,1.79,7.44,2.7l-.42,1.3c-3.08-.48-6.19-.88-9.25-1.46-19.7-3.74-39.31-5.11-58.66,1.85l-38.88,14q-4.23,1.53-8.47,3c-20.25,7-39.86,16.47-61.67,17.75a314.6,314.6,0,0,1-38.35.25c-12.6-.79-20.62-10-28.21-18.91-3.87-4.56-8.47-7.63-14.93-10.51,0,2.92-.46,4.93.09,6.61,1.07,3.29,3.07,6.31,3.95,9.63.57,2.15.76,5.66-.49,6.81-4.36,4-8.93,8.78-14.3,10.42-11.58,3.54-23.77,3.81-35.23-1.13-7.24-3.13-14-7.34-22.56-11.9.84,2.84,1,4.8,1.91,6.2,6.61,9.77,15.48,15.3,27.72,14.57,2.52-.15,5.09.61,7.64,1-.07.74-.14,1.47-.2,2.21H96.78c.26,3.62,2.17,5.55,6,5.71,10,.41,19.87.73,29.68-1.68,2.3-.57,4.85-.08,7.28-.08.05.76.09,1.53.13,2.3l-34.94,4.14C116.37,645.19,128.45,643.05,140.45,643.71Zm1.84-362.62-.95-.78c-5.78,2.52-12,4.4-17.24,7.71-7.7,4.82-15.92,6-24.68,6.71-5.1.39-10.94,1.69-14.88,4.66-17.16,12.94-28.83,29.3-28.93,52-.07,17.15-.12,34.31-.89,51.44-.26,5.77,1.52,9.18,6.07,12.26,6.23,4.22,9.66,3.71,12.05-3.45a10.65,10.65,0,0,1,6.75-7.18,59.11,59.11,0,0,1,9-3c1.31-.27,2.88.75,4.34,1.18l.08,1.48c-9.52,1.23-15.79,6.12-19.61,14.84-1.92,4.39-7.28,4.71-11.78,1.86-1.58-1-3-2.17-5.21-3.71q4.6,95,9.06,187.05c6.72-10.87,13.93-22.61,21.23-34.29,2.58-4.14,5.5-7.91,11-8.47,14.69-1.51,28.3,1.86,41.23,8.69,1,.54,2.38.48,5,1-1.6-3.68-2.9-6.21-3.83-8.88-7.69-22-15.43-44-22.9-66-3.72-11-7.67-22-8.34-33.77-.18-3.22-.89-6.41-1.35-9.61l-1.23-.17c-3.66,15.28-8.13,30.17-19.79,41.68a12,12,0,0,1,.85-6.86c3.22-6.95,6.73-13.77,10-20.67,2.3-4.78,3.66-10.3,6.94-14.24,2.87-3.44,2.23-6.35,1.79-9.77-1.37-10.7-3.13-21.38-4-32.13-1.09-13.1-1.36-26.27-2.24-39.4-.13-1.93-1.65-3.76-2.53-5.64-1.89.95-4.34,1.45-5.56,2.95-3.53,4.35-7,8.66-13,9.09-3.59.25-5.06,2.07-6.06,5.33-.86,2.83-2.67,5.37-4,8l-2.1-1c1.49-4.13,2.76-8.37,4.59-12.35a6.17,6.17,0,0,1,4.08-3.15c6.73-.69,11.92-3.74,14.56-9.83,1.5-3.45,1.48-7.56,2.14-11.35,3.64,1.16,3.65,1.17,4.27,7.74,7,2.41,12.37,1.28,14.69-3.08,2-3.83-.45-9.14-6.11-13.31-4.15-3.06-8.31-6.12-12.23-9.45-1-.86-1.18-2.75-1.73-4.16l1.5-1.08c6.66,4.89,13.27,9.85,20,14.63,1.28.9,3.74,1.92,4.51,1.35a8,8,0,0,0,3-5c.48-4.51-1.9-8-5.39-10.67-4.37-3.3-8.9-6.39-13.32-9.64-1.35-1-2.56-2.17-3.84-3.26l.89-1.52c5.48-1,8.68,3.82,12.59,6.35,4.2,2.73,7.81,6.38,12.6,10.4-.49-2.69-.68-4.29-1.08-5.83-2.3-8.68-8.45-14.46-14.93-20.07-1.65-1.43-2.61-3.67-3.88-5.53l1.35-1a7.63,7.63,0,0,1,2.11,1.14c4.35,4.58,8.77,3.87,13.2.23,6.54-5.37,13.07-10.74,19.47-16.26C140.68,284.23,141.36,282.5,142.29,281.09Zm5.43-69.2c0,1.56.07,2.85,0,4.14-.61,10.59-1.32,21.18-1.86,31.77-.48,9.26-1.35,18.55-.95,27.78.22,5.07,2.69,10.05,4.16,15.15,8.41-3.27,9-4.68,6-13h-4.13l-.79-1.13c1.3-1.08,3-3.29,3.84-3a10.68,10.68,0,0,1,5.58,3.88c2,3,6.33,7.57,9.25,8.37.27.08.47.42.7.65-2.09,8.85.13,11.26,9.23,10.2,2-.23,4.14,0,7.52,0-8.6,5.6-16.6,4.2-21.89-3-2,1.49-3.81,3.14-5.88,4.43-2.57,1.59-2.8,3.23-1.16,5.72,8.25,12.49,17.15,24.33,31.7,30.09,11.63,4.6,22.93,4.69,33.67-2.94,7.6-5.39,15.29-10.73,23.37-15.35,14.63-8.35,29.19-16.77,41.41-28.56,5.78-5.58,11.17-11.57,16.84-17.47-7.1-4.43-13.74-8-19.71-12.46-8.67-6.46-16.82-13.62-25.26-20.39-12.06-9.67-15.75-11.91-29.16,1.08-2.25,2.19-4.05,2.45-6-.55-5.73-9.06-14.18-15-23.82-19s-19.5-4.42-27.65,4.15a22.72,22.72,0,0,1-3.12,2.35C163.15,212,160.87,210.61,147.72,211.89Zm86-37.93c-9.18,11.55-21,13.68-34.09,12.56-13.82-1.18-22.91-9.57-29.9-18.36-7.33,2.23-13.64,4.48-20.13,6.05-7.26,1.75-13.63-.45-18.91-7.21.28,10.25-1.53,11.79-10.48,10-5.06-1-10.08-2.25-15.07-3.56-19-5-38.37-9.18-55.87-19.21,5.77,6.27,11.25,13.11,18.15,17.92,11.43,8,23.65,14.86,35.77,21.8,9.83,5.62,17.77,12.78,22.25,23.37.49,1.14,1.09,2.24,1.68,3.45,20.93-17.45,28.18-18.06,44.85-4.53,24.19-11.49,40.29,1.85,56,17.06.48-.37,1-.74,1.49-1.17,10.67-9.51,18.12-9.68,29.12-.75,7.24,5.87,14,12.47,21.87,17.38,16.46,10.31,33.44,19.8,50.29,29.47,6.73,3.85,13.7,7.29,21.81,11.58-.78-2.5-.83-4.07-1.62-5-12.6-14.38-25.16-28.8-38-43-8.34-9.19-18.29-17.27-18-31.88-2.72,1.29-4.64,2.2-6.57,3.13-4.53,2.17-8.67,2.36-12.94-1.14C261.12,200.25,245.8,189.75,233.68,174ZM105.78,402.37c2.8-1.56,4.18-2.44,5.65-3.13,10.06-4.71,19.89-10.05,30.3-13.79a46,46,0,0,1,19.11-2.07c12.11,1.07,24.07,2.06,36.22.34,19.45-2.75,25.34-9.66,30.95-30a20.65,20.65,0,0,0-3.38-17.91c-19.85,11.61-39.48,6.39-53.25-8.63-7-7.66-13.39-15.9-20.1-23.94l-18.79,12.18c9.92,9.62,5.89,18.36-.1,25-3.51,3.87-9,5.9-13.42,9-1.41,1-3,2.78-3.14,4.34-.73,7.27-4.08,12.06-12.35,13.75C104.22,378.71,105,389.9,105.78,402.37Zm198.38-126.1-1.32-1a37.13,37.13,0,0,0-3,3.65c-6.58,10.31-15.59,18.19-25.75,24.65-11.92,7.59-24.24,14.58-36.33,21.91a45.9,45.9,0,0,0-7.6,5.56,4.63,4.63,0,0,0-.84,4.19c4.41,9.43,3.63,18.65-.28,28a77.34,77.34,0,0,0-4.75,14.14c-3.1,15.33,2.81,23.11,16.39,26.95,2.94.83,7.19.61,9.62-1,13.91-9.16,27.25-19.16,38.39-31.66a14.21,14.21,0,0,0,3.22-9c-.17-9.14-1.39-18.26-1.8-27.4-.72-16.31,1.7-32.15,8.32-47.19C300.19,284.11,302.24,280.22,304.16,276.27Zm60.78,221.18c9.45-6.84,18.18-13.35,27.11-19.56,13.05-9.09,26.67-17.15,43.21-17.37,6.95-.08,13.91,1,20.87,1.46,3.43.24,5.23-.09,3.92-4.69-6.79-23.7-21.94-39.88-43.95-50.08-10.33-4.79-21.46-4.63-32.78-5.6C384.27,435.34,374,466.12,364.94,497.45ZM86.71,583.6c.06,1,.05,2,.18,3,1.22,9.85,2.58,19.82,12.65,25a54.09,54.09,0,0,0,14,4.7c11.42,2.26,22.46,1.49,32.32-5.74,3.62-2.66,4.85-5.29,2.45-9.67-3-5.52-5.62-11.35-3.57-18.07.25-.83-.81-2.49-1.72-3.18-11.47-8.77-24-14.9-38.91-14C92.74,566.36,86.11,573.38,86.71,583.6Zm28.23-132.28c-1.39,6.5,13.53,67.38,20.67,84.87,6.66,16.32,14.32,32.15,24.54,46.9a452.41,452.41,0,0,0-2.93-45.59c-1.55-13.19-3.67-26.34-6.21-39.38-1.66-8.55-2.28-17.88-8.8-24.51-7.2-7.32-15.1-14-22.83-20.77C118.3,451.9,116.48,451.82,114.94,451.32Zm32.55,14.92c0-2.18,0-3.95,0-5.72.14-8.63-.78-17.46.68-25.87,2.45-14.2,6.35-28.16,9.77-42.19.62-2.53.29-4-2.54-3.94a63.06,63.06,0,0,0-9.44.39c-14,2.35-26,8.86-36.51,18.25a7.42,7.42,0,0,0-2.16,5,120.11,120.11,0,0,0,1.16,17.39c.62,3.95,1.35,9.16,4,11.3C123.46,449.68,135.22,457.5,147.49,466.24ZM391.13,115.37c.94,8,1.28,15.88,2.92,23.48,2,9.41,4.84,18.75,12,25.9,4.69,4.71,10.36,4.22,13.8-1.5a45.93,45.93,0,0,0,5-11.33c5.56-20.28,1.46-39.13-9.51-56.62a30.84,30.84,0,0,0-8.63-8.78c-6.35-4.31-11.32-2.32-12.74,5.26C392.45,99.59,392,107.59,391.13,115.37Zm-293.4,80c-5.14,10.63.41,20.85,11.13,22.27,1.55.2,3.92,1.33,4.19,2.44a7.41,7.41,0,0,1-1.38,5.38c-4.55,6.17-3.61,13.4,2.91,17.54,3.46,2.2,7.32,3.78,11.09,5.68-.32,12.75,3.06,17.1,13.8,16.87.58-17.23,8.48-34,2.9-53l-16.85,15.4C120.4,213.26,110.39,203.49,97.73,195.35ZM85.24,92.53C85.06,85.22,78.53,78,70.32,75.38s-16.37-2-24.48.54c-6.66,2.09-7.77,4.26-4.38,10.46a100.77,100.77,0,0,0,9.21,14.22c6.08,7.67,12.38,15.21,19.1,22.32,4.59,4.85,7.52,4.07,9.82-1.94a89.88,89.88,0,0,0,4.46-14.23c1.59-7.82-2.43-15.42-9.44-19.2-1.07-.58-2.08-1.28-3.39-2.09C75.7,83,75.91,83.15,85.24,92.53ZM385,298.4c12.31-.15,24.21-4,35.23-10.6,9.54-5.74,9.9-8.78,2.3-16.39-.24-.24-.46-.49-.71-.71-12.74-11.12-31.21-13.32-42.54,3.91a38.79,38.79,0,0,0-4.65,9.85C370.27,298.52,370.31,297.27,385,298.4Zm3.32-207.73C376,103.05,366,120.42,370.53,136c4.42,15.31,16.48,23.44,30.4,29.72C383.11,143.3,386.75,117.34,388.27,90.67ZM356.14,570.21c4.09,0,7.83-.57,11.31.13,5,1,5.56-1.36,4.9-5.12-1.59-9-3.1-18-5-26.87-1-4.7-2.89-9.21-4.38-13.81l-1.3.25C359.81,539.86,358,554.92,356.14,570.21ZM49,351.72c-2.61,1.62-4.57,2.86-6.56,4.06-8.53,5.15-17.17,10.15-25.52,15.58-1.15.75-.94,3.6-1.36,5.48,1.65.26,3.73,1.3,4.86.66,8.13-4.56,16-9.56,24.07-14.24C48.87,360.71,50.14,357.15,49,351.72Zm115.54-63.85c-8.93,1.48-41.95,23.29-42.34,28.3,15.37-5.71,26.78-17.17,40.66-24.33C163.65,291.43,163.78,289.75,164.54,287.87Zm-38,31.76c-.45,7.93-.86,15.15-1.28,22.59,6.15-3.18,10.78-11.59,9.06-16.53C133,322,131.18,318.56,126.53,319.63Zm-9-9.84c.51.13,1.64.8,2.12.48,8-5.25,16-10.5,23.81-16.1,1.07-.77.8-3.4,1.24-5.63Zm288,3.8,1.5-.33V299.21c-9.49,1.91-9.59,2.1-4.94,9.72C403,310.57,404.3,312,405.45,313.59ZM3.72,386.35c3.55.33,9.2-3,9.46-5.65.07-.66-1.81-2.24-2-2.1C8,380.45,4.12,381.72,3.72,386.35Zm403.46-70.6c-1.81,2.25-3.46,3.43-3.6,4.77-.09.93,1.8,2.77,3,2.92s3.29-1.43,3.32-2.3C409.92,319.75,408.56,318.32,407.18,315.75ZM38.6,125.61A29,29,0,0,0,34,122.15c-.28-.14-2.3,1.91-2.11,2.43a9.09,9.09,0,0,0,2.92,3.81C35.05,128.61,36.75,127,38.6,125.61Z"/><path class="cls-1" d="M296.63,203.74c-10.12,10.59-18.63,6.15-27.14-1.47-6.81-6.11-14.41-11.36-21-17.7-5-4.86-9-10.82-13.18-16-5.42,3.35-11.26,7.75-17.73,10.82-13.59,6.44-36.38,3.06-43.68-15.13-2.09-5.21-3-5.22-7.57-1.71-1.72,1.32-3.42,2.66-5.15,4-9.4,7.07-19.18,6.83-28.24-.63-1.57-1.28-3.27-2.4-5.92-4.32v11.5c-8.25-2.45-15.6-5-23.15-6.73-6.12-1.38-11-3.86-12.83-10.09-2-6.87-2.49-14.15,1.06-20.4,1.75-3.09,6.29-4.6,10.05-7.14-.28-2.74-.92-6.65-1-10.57-.17-8.09,2.69-11.62,10.2-14.41,1.49-.56,2.78-2.87,3.29-4.63,2.19-7.44,5.5-11.06,12.58-11.5A16.08,16.08,0,0,1,136,90c6.23,3.81,6.09,4,8.82-3.05,3.29-8.52,10.43-12.3,18.56-9.95,5.62,1.62,8.38,6.24,11.43,10.59a22.58,22.58,0,0,1,1.38,2.63c3.19-2.8,6-5.84,9.38-8.15,8.73-6,14-4.23,18.79,6.23,3.66-2.12,2.49-5.54,1.85-8.21-.88-3.66-3.7-6.72-7.58-5.79-6.05,1.44-11.83,4-17.7,6.14a15,15,0,0,0-2.5,1.67c-5.74-6.63-12.84-10.89-21.76-9.67-9.21,1.27-13.75,7.94-16.14,16.38C137.9,87,135.69,84.8,133,83.8c-8.64-3.23-18.46,2.74-20.64,12.65-.67,3-1.89,4.33-4.69,5.43-6.24,2.44-9.37,8.69-9.12,16.78a19.79,19.79,0,0,1-.71,6.7c-5.61-3.49-8-8.51-8.43-14.52-.61-8.45-1-16.92-1.52-25.38-.37-6.19,3.24-9.22,9-7.52,4.45,1.31,5.34.32,4.94-4.55-.36-4.5-2.08-9.07,1.4-13.41,5-6.25,10.41-6.75,15-1.83,3.81-2,7.28-5.22,10.73-5.18s6.64,3.42,10.36,5.57a48.07,48.07,0,0,0,.58-5.3c.19-11.79,5.65-20.12,16.06-25.57s21.66-8.7,33.16-6c8.08,1.87,15.57,6.34,23.18,10,.78.37.67,2.85.76,4.36a21.44,21.44,0,0,0,.77,6.1c2.65-7.32,5.83-14.1,13.17-17.24,7.71-3.31,15.1-1,20.31,6.34,1.11-2.92,1.92-5.29,2.9-7.59C253.5,15.79,256,7.37,266.48,6.08c6.83-.85,17.53,5.77,19.07,12.47.27,1.17-.55,2.8-1.28,4-2.41,3.81-2.52,7.56.19,13.05C285,26.13,288,20,296.93,19.93c12-.09,14.9,9.31,18.16,18.39.4-.38.89-.61,1-1,5.89-20,32.73-22,47.21-6.84a30.12,30.12,0,0,1,8.48,22.17c-.15,7.19-2.09,9.24-8.87,11.5-2.09.7-4.14,1.5-6.22,2.25.06.66.11,1.32.17,2,4.14,0,8.28,0,12.42,0,6.69.07,13.07.8,16.7,7.65,1.62,3.06,1.5,5.61-1.3,8-5.67,4.77-11.53,8.43-19.5,6-1.5-.46-3.49.67-5.25,1.06,1.45,1.25,2.75,3.31,4.37,3.59,4.19.72,8.52.65,13.28.93-.85,1.39-1.79,3-2.79,4.58-4.45,7-6.36,14.79-7.77,23-1.37,7.95-2.2,15.62-.61,23.62.81,4.08-2.86,5.58-6,6.82a50.71,50.71,0,0,1-5.33,1.38c2.36,1.78,4.22,2.63,5.26,4.07,2.73,3.78.31,9-5.56,10.4-4.35,1-4.26,3.13-3.75,6.38.64,4.08,1.52,8.21,1.49,12.31-.09,10.76-12.39,14-19.54,11.17-1.4-.56-3.39.34-5.1.57,1.07,1.24,1.91,3,3.27,3.64,11.45,5.28,26.27-4,26.9-16.83.18-3.77-.59-7.57-1-11.69,6.77-3.42,10.75-8.27,9.2-17-.47-2.62,3.25-6,4.39-7.91l29.17,21c-2,5.18-4.2,10.43-6.11,15.76-.25.72.73,1.87,1.46,3.57.92-1.54,1.62-2.26,1.81-3.1,2.27-10.21,8.61-15,18.63-13.47,11.49,1.73,19.34,8.72,25.48,18.17,3.78,5.82,4.84,12.18,5.33,18.95,1,14.44-10.47,25.72-21.24,28.62-7.8,2.11-14.64-1.16-20.85-6-3,2.45-3.53,4.51.36,6.38a81,81,0,0,1,8,4.1c1.61,1,4.13,2.78,4,4-.34,3.33-1.75,6.58-3,9.74-.15.37-2.18.29-3.19,0-17.12-5.54-35.41,9.72-39.4,23.39a58.33,58.33,0,0,0-2.3,9.67c-.95,8.34-.09,9.49,7.49,11.81-7.21,11.47-22.41,12.88-32.49,3.08a48.76,48.76,0,0,0-4.92-3.66c-.78,5.49,2.77,6.92,5.36,8.47,4.12,2.49,4.38,4.95,1.95,8.95-8.17,13.4-20.94,15.79-37,6.72.49,1.52.53,3.55,1.56,4.44a20.93,20.93,0,0,0,7.18,4.31c3.27,1,3.56,3,3.21,5.68-.73,5.45-6.85,10.73-12.67,10.95-6.76.25-12.75-3.84-13.54-9.95-3.2-24.77,3.72-47.26,16-69.21l41.59,22.13c4.31-4.57,2.59-8.91-.21-12.4q-16.56-20.61-33.72-40.76c-4.95-5.82-10.44-11.2-15.76-16.7-4-4.11-5.07-9.22-5.31-14.65-.07-1.61,0-3.22,0-4.83Zm-88.35-88.1c.58-3.51,1.29-5.75,1.26-8-.1-9.25,5-17.25,13-19.12,8.57-2,16.75-1.24,23.9,4.93-.58-4.12-6.07-10-10.39-9.74a89.58,89.58,0,0,0-19.86,3.35c-7.87,2.34-9.38,10-11.49,16.88-7.93-5.16-15.8-4.75-22.47,1-5.08,4.37-6.2,6.61-4.84,9.71C191.44,102.83,196.07,102.52,208.28,115.64Zm192.41,87.3-1.49-1.14c-2.05,1.9-4.2,3.7-6.14,5.7-8.18,8.46-17.47,14.7-29.63,15.75-1.54.13-2.95,1.78-4.42,2.72l.95,2.18L381.11,225c-.35,2.74-.12,5.64-1.13,8-3.37,8-9.39,13.09-18.12,14.71a35.09,35.09,0,0,0-4.52,1.71c12.29,3.05,28.47-8.74,27.78-19.91-.41-6.65,2.46-10.4,6.33-14.42,2.19-2.27,4.56-4.4,6.53-6.85C399.19,206.72,399.8,204.72,400.69,202.94Zm-75.78-45.32c4.89-2.83,6.11-6.86,4.47-13.53-2.32-9.41-10.76-16.41-19.91-16.87-10.71-.53-21,4.55-21.91,11,8.37-5,16.55-8.83,26.42-4.66C325.09,138.25,323.7,148.19,324.91,157.62Zm21.19-2.05c10.62-3.71,16.27-14.1,15.23-25.7-.74-8.15-4.6-14.09-12-17.48-1.14-.52-2.91.37-4.39.61.77,1.25,1.24,3,2.35,3.69,7,4.4,10.16,10.85,8.4,18.67-1.2,5.31-4.29,10.2-6.61,15.24C348.41,152,347.45,153.32,346.1,155.57Zm-65.17-48.36c2.83-3.11,5.13-6.3,8.06-8.72,5.8-4.75,10.24-2.86,11.88,4.57.35,1.6,1.3,3.07,2.46,5.7,3.39-9.22,2.29-13.85-3.1-17-5.21-3.08-14.09-1.12-18.58,4.09C278.61,99.35,278.32,104.17,280.93,107.21Zm137.21,85.65c3.23,4.9,6.32,8.09,7.66,11.89,3.15,8.93-.7,14.12-10.15,14.65-2.14.13-4.38-.44-6.44,0-1.26.25-2.28,1.75-3.41,2.69,1,.81,2.06,2.3,3.09,2.3a40.93,40.93,0,0,0,9.83-.92c5.86-1.43,10.3-4.78,11.52-11.07,1.37-7-1.3-12.75-6.44-17.35C422.67,194,420.76,193.82,418.14,192.86ZM127,154.62c-12.61-12.82-1.25-27.94,19.59-29.4a13.84,13.84,0,0,0-2.25-1.5c-6.22-2.41-16.82,1.72-21.75,8.54-3.84,5.3-5.22,11.1-2.75,17.38C121,152.47,122.57,155,127,154.62Z"/><path class="cls-1" d="M219.75,380.06c0,2.41,0,4,0,5.64-.3,10.32,4,18.05,13.15,22.84,8.89,4.65,17.4,2.82,24.72-3.12,11.51-9.32,22.64-19.12,33.68-29,3.87-3.47,6.9-4.34,12.27-2.34,15.58,5.8,31.59,10.4,47.39,15.58,7.28,2.38,14.54,4.82,21.64,7.65a6.59,6.59,0,0,1,3.25,4.61c3,24.64-1.31,48.51-8.94,71.78-7.31,22.32-8.76,45.68-13.19,68.5-1.61,8.29-1.86,16.84-3,25.22-.22,1.56-1.57,3.77-2.91,4.25-16.11,5.83-32.39,11.21-48.49,17.07-12.66,4.61-25.14,9.71-37.69,14.63-21.09,8.26-42.83,9.49-65.21,7.38-12.19-1.15-20.25-7.52-27.3-16.26a11.73,11.73,0,0,1-2.12-5.92c-2.35-23-4.32-46.08-6.9-69.07-2.4-21.47-6.08-42.81-7.87-64.31-.84-10.08.9-20.49,2.46-30.6a260.83,260.83,0,0,1,6.63-29c2.05-7.44,3-7.63,10.67-6.61,13.65,1.82,26.91-.61,40-4C214.49,384.28,216.62,382.08,219.75,380.06Zm-20.88,97.82-2.07.49c.43,3.32.42,6.77,1.37,9.94,3.86,12.9,8,25.73,12.07,38.55,2.94,9.17,5.54,18.63,13.16,25.29,4.9,4.29,9.79,8.94,15.48,11.88s12.12,5,19.17,2.78c-1.57-1.87-3.34-3.46-5.37-4-17.33-4.33-30.76-12.89-36.34-31.1-4.76-15.57-10.11-31-15.18-46.43C200.35,482.85,199.63,480.36,198.87,477.88Zm92.53,61.23.37-2.12c-4.1-.72-8.22-1.4-12.31-2.17-8.28-1.56-17.36-1.53-24.65-5.12-13.27-6.55-25.38-15.36-31.24-30.11a25.19,25.19,0,0,0-2.41-4.37c-2.47-3.85-5-7.67-7.54-11.5l-1.77,1.18c6.23,15.3,13.18,30.3,26.39,41.19C253.84,539,272.34,540.56,291.4,539.11ZM303.45,383.4l-.58-.9a22.36,22.36,0,0,0-4.24,2.11c-9.09,7.23-18.09,14.58-27.14,21.87s-18,14.79-27.28,21.72c-5.58,4.16-10.62,1.94-12.48-4.79-.71-2.57-1.12-5.22-1.73-7.81-1-4.39-4.16-5.88-7.44-6.21,1.42,5,2.85,9.86,4.18,14.77,1.79,6.63,6.43,10.23,13.25,10.68,5.77.39,9.21-3.53,12.85-6.74,13.34-11.76,26.44-23.79,39.7-35.65C296.06,389.3,299.81,386.41,303.45,383.4Z"/><path class="cls-1" d="M140.45,643.71c-12-.66-24.08,1.48-35.53-3.13l34.94-4.14c0-.77-.08-1.54-.13-2.3-2.43,0-5-.49-7.28.08-9.81,2.41-19.73,2.09-29.68,1.68-3.82-.16-5.73-2.09-6-5.71H118c.06-.74.13-1.47.2-2.21-2.55-.34-5.12-1.1-7.64-1-12.24.73-21.11-4.8-27.72-14.57-1-1.4-1.07-3.36-1.91-6.2,8.55,4.56,15.32,8.77,22.56,11.9,11.46,4.94,23.65,4.67,35.23,1.13,5.37-1.64,9.94-6.43,14.3-10.42,1.25-1.15,1.06-4.66.49-6.81-.88-3.32-2.88-6.34-3.95-9.63-.55-1.68-.09-3.69-.09-6.61,6.46,2.88,11.06,5.95,14.93,10.51,7.59,8.94,15.61,18.12,28.21,18.91A314.6,314.6,0,0,0,231,615c21.81-1.28,41.42-10.73,61.67-17.75q4.24-1.49,8.47-3l38.88-14c19.35-7,39-5.59,58.66-1.85,3.06.58,6.17,1,9.25,1.46l.42-1.3c-2.47-.91-4.91-2-7.44-2.7-6.39-1.81-12.89-3.28-19.22-5.3-1.86-.6-4.36-2.34-4.74-4-3.18-13.55-5.92-27.21-8.8-40.83a32,32,0,0,0-1.37-5.82c-3.42-8.09-.3-14.24,5.29-20,16.52-17,35.63-29.44,59.27-33.83,3.63-.67,7.49-.09,11.6-.09-1.12,6.83-2.72,13.14-3.1,19.51-.92,15.45-1.36,30.93-1.82,46.4-.68,22.95-1.23,45.9-1.79,68.84-.12,5.1-2.32,9.3-6.53,11.67-4.85,2.72-10.26,4.44-15.43,6.6a13.21,13.21,0,0,0-3.56,1.58c-8.7,7.47-19.3,10.8-29.95,14.19-11.24,3.58-22.21,8.08-33.53,11.34a190.15,190.15,0,0,1-53.68,7.38c-17.15-.09-34.31,0-51.43-.74-12.44-.56-24.81-2.51-37.23-3.65-13.1-1.2-25.82,1.19-38.57,4-14,3.06-28.25,4.47-42.59,2.53-4.16-.56-8-2.09-10-7C122.63,645.94,132.39,649,140.45,643.71Zm217.67-54.08-.29,1.49c1,.45,2.05,1.26,3.09,1.29,12.65.39,25.3.75,38,.85,1.79,0,3.59-1.41,5.39-2.17l-.54-1.46Zm25-28-.56,1.61c1.17.45,2.35,1.29,3.52,1.29,11.72-.07,22.52,3.44,33.11,8,1.26.54,2.86.29,4.29.41l.32-1.86C411.84,561.46,397.61,561,383.1,561.65ZM242.3,643.41c-2.29-8-6.63-14-13.81-17.89a4.58,4.58,0,0,0,.36,3.32c2.36,4.24,5.24,8.25,7.12,12.68C237.39,644.87,238.86,645.49,242.3,643.41Zm-35.9-21.95c.86,9,11.39,20.8,17,20.16Z"/><path class="cls-1" d="M142.29,281.09c-.93,1.41-1.61,3.14-2.85,4.2-6.4,5.52-12.93,10.89-19.47,16.26-4.43,3.64-8.85,4.35-13.2-.23a7.63,7.63,0,0,0-2.11-1.14l-1.35,1c1.27,1.86,2.23,4.1,3.88,5.53,6.48,5.61,12.63,11.39,14.93,20.07.4,1.54.59,3.14,1.08,5.83-4.79-4-8.4-7.67-12.6-10.4-3.91-2.53-7.11-7.35-12.59-6.35l-.89,1.52c1.28,1.09,2.49,2.27,3.84,3.26,4.42,3.25,9,6.34,13.32,9.64,3.49,2.64,5.87,6.16,5.39,10.67a8,8,0,0,1-3,5c-.77.57-3.23-.45-4.51-1.35-6.75-4.78-13.36-9.74-20-14.63l-1.5,1.08c.55,1.41.71,3.3,1.73,4.16,3.92,3.33,8.08,6.39,12.23,9.45,5.66,4.17,8.16,9.48,6.11,13.31-2.32,4.36-7.72,5.49-14.69,3.08-.62-6.57-.63-6.58-4.27-7.74-.66,3.79-.64,7.9-2.14,11.35-2.64,6.09-7.83,9.14-14.56,9.83A6.17,6.17,0,0,0,71,377.65c-1.83,4-3.1,8.22-4.59,12.35l2.1,1c1.38-2.67,3.19-5.21,4-8,1-3.26,2.47-5.08,6.06-5.33,6.07-.43,9.51-4.74,13-9.09,1.22-1.5,3.67-2,5.56-2.95.88,1.88,2.4,3.71,2.53,5.64.88,13.13,1.15,26.3,2.24,39.4.89,10.75,2.65,21.43,4,32.13.44,3.42,1.08,6.33-1.79,9.77C101,456.45,99.6,462,97.3,466.75c-3.32,6.9-6.83,13.72-10,20.67a12,12,0,0,0-.85,6.86c11.66-11.51,16.13-26.4,19.79-41.68l1.23.17c.46,3.2,1.17,6.39,1.35,9.61.67,11.79,4.62,22.78,8.34,33.77,7.47,22.07,15.21,44.05,22.9,66,.93,2.67,2.23,5.2,3.83,8.88-2.61-.47-4-.41-5-1-12.93-6.83-26.54-10.2-41.23-8.69-5.46.56-8.38,4.33-11,8.47-7.3,11.68-14.51,23.42-21.23,34.29Q61,512.07,56.37,417.14c2.16,1.54,3.63,2.71,5.21,3.71,4.5,2.85,9.86,2.53,11.78-1.86,3.82-8.72,10.09-13.61,19.61-14.84l-.08-1.48c-1.46-.43-3-1.45-4.34-1.18a59.11,59.11,0,0,0-9,3,10.65,10.65,0,0,0-6.75,7.18c-2.39,7.16-5.82,7.67-12.05,3.45-4.55-3.08-6.33-6.49-6.07-12.26.77-17.13.82-34.29.89-51.44.1-22.69,11.77-39.05,28.93-52,3.94-3,9.78-4.27,14.88-4.66,8.76-.68,17-1.89,24.68-6.71,5.29-3.31,11.46-5.19,17.24-7.71ZM75.43,464.54c3.75-4.55,6.28-8,9.23-11.08s6.17-5.5,9.27-8.22l1.49,1.26L87.7,461l1.72.82c4.71-4.46,8.46-9.57,9.08-16.45.4-4.45-1.33-5.71-5.28-3.72-8,4-13.56,10.55-17.73,18.32C75.06,460.78,75.43,462,75.43,464.54ZM69,329.62c5.9,3.65,10.8,1,11.92-5.09.3-1.66.67-3.76,1.8-4.72a14.52,14.52,0,0,0,3.65-17.22c-5.56,3.31.85,11-6.08,14.77C76,319.68,77.61,329,69,329.62Z"/><path class="cls-1" d="M147.72,211.89c13.15-1.28,15.43.09,21.91,12.82a22.72,22.72,0,0,0,3.12-2.35c8.15-8.57,17.88-8.18,27.65-4.15s18.09,10,23.82,19c1.91,3,3.71,2.74,6,.55,13.41-13,17.1-10.75,29.16-1.08,8.44,6.77,16.59,13.93,25.26,20.39,6,4.46,12.61,8,19.71,12.46-5.67,5.9-11.06,11.89-16.84,17.47-12.22,11.79-26.78,20.21-41.41,28.56-8.08,4.62-15.77,10-23.37,15.35-10.74,7.63-22,7.54-33.67,2.94-14.55-5.76-23.45-17.6-31.7-30.09-1.64-2.49-1.41-4.13,1.16-5.72,2.07-1.29,3.92-2.94,5.88-4.43,5.29,7.18,13.29,8.58,21.89,3-3.38,0-5.48-.2-7.52,0-9.1,1.06-11.32-1.35-9.23-10.2-.23-.23-.43-.57-.7-.65-2.92-.8-7.28-5.37-9.25-8.37a10.68,10.68,0,0,0-5.58-3.88c-.89-.27-2.54,1.94-3.84,3l.79,1.13h4.13c3,8.36,2.42,9.77-6,13-1.47-5.1-3.94-10.08-4.16-15.15-.4-9.23.47-18.52.95-27.78.54-10.59,1.25-21.18,1.86-31.77C147.79,214.74,147.72,213.45,147.72,211.89Zm92.94,22.67c-1.53,4.45-2.19,8.43-4.16,11.6-2.45,4-1.8,7.71,1.12,9.8a38.17,38.17,0,0,0,13.16,5.62c2.32.57,5.23-1.17,7.85-1.92,1.76-.51,3.5-1.13,5.24-1.7l-.18-1.54c-1.45-.13-2.9-.25-4.35-.39-5.24-.53-10.58-.62-15.7-1.73-4.69-1-5.21-3.26-3-7.57C242.57,243.09,244.11,239.36,240.66,234.56Zm-84.11-13.62c-6.76,7.79-10.6,13.42,0,19.13a7.46,7.46,0,0,0,10.86-4.87c-2.74-.13-5.6.21-8.18-.48-5.8-1.55-6.27-3-4.05-8.43A38.1,38.1,0,0,0,156.55,220.94Zm32.34,38.74c1-5.2-1.54-7.79-4.29-9.86-1-.75-4.45-.32-4.59.18a50.9,50.9,0,0,0-1.07,8.32l1.65.25,3.17-4.49C185.45,255.93,186.81,257.42,188.89,259.68Z"/><path class="cls-1" d="M233.68,174c12.12,15.79,27.44,26.29,41.7,38,4.27,3.5,8.41,3.31,12.94,1.14,1.93-.93,3.85-1.84,6.57-3.13-.3,14.61,9.65,22.69,18,31.88,12.86,14.15,25.42,28.57,38,43,.79.91.84,2.48,1.62,5-8.11-4.29-15.08-7.73-21.81-11.58-16.85-9.67-33.83-19.16-50.29-29.47-7.84-4.91-14.63-11.51-21.87-17.38-11-8.93-18.45-8.76-29.12.75-.48.43-1,.8-1.49,1.17-15.72-15.21-31.82-28.55-56-17.06-16.67-13.53-23.92-12.92-44.85,4.53-.59-1.21-1.19-2.31-1.68-3.45-4.48-10.59-12.42-17.75-22.25-23.37C91,187,78.81,180.09,67.38,172.12c-6.9-4.81-12.38-11.65-18.15-17.92,17.5,10,36.83,14.21,55.87,19.21,5,1.31,10,2.53,15.07,3.56,9,1.82,10.76.28,10.48-10,5.28,6.76,11.65,9,18.91,7.21,6.49-1.57,12.8-3.82,20.13-6.05,7,8.79,16.08,17.18,29.9,18.36C212.7,187.64,224.5,185.51,233.68,174Zm-47.54,26.16c-1-.3-1.92-.91-2.74-.78-7.35,1.16-11.5-3.57-16.11-8.07-2.47-2.41-6-3.86-9.23-5.29-1.05-.46-3.7.16-3.95.88-1.66,4.73-2.94,9.6-4.13,14.48-.13.53,1.26,2.07,1.66,2a4.19,4.19,0,0,0,2.45-1.86c.55-1,.38-2.3.79-3.37,2.12-5.51,6.32-6.25,10.33-2.09a36.57,36.57,0,0,0,7.19,6.09C177.45,205.12,183.31,204.2,186.14,200.12Zm47.2,22c6-6.07,12.57-6.76,19.5-6.21,9.24.72,9.85,1.23,12.84,10.11.63,1.86,2.2,3.4,3.87,5.88,2.93-10.53-2.86-20.47-11.71-22C250,208.56,232.8,212.66,233.34,222.16Z"/><path class="cls-1" d="M304.16,276.27c-1.92,4-4,7.84-5.74,11.86-6.62,15-9,30.88-8.32,47.19.41,9.14,1.63,18.26,1.8,27.4a14.21,14.21,0,0,1-3.22,9c-11.14,12.5-24.48,22.5-38.39,31.66-2.43,1.6-6.68,1.82-9.62,1-13.58-3.84-19.49-11.62-16.39-26.95A77.34,77.34,0,0,1,229,363.27c3.91-9.35,4.69-18.57.28-28a4.63,4.63,0,0,1,.84-4.19,45.9,45.9,0,0,1,7.6-5.56c12.09-7.33,24.41-14.32,36.33-21.91,10.16-6.46,19.17-14.34,25.75-24.65a37.13,37.13,0,0,1,3-3.65Z"/><path class="cls-1" d="M364.94,497.45c9.09-31.33,19.33-62.11,18.38-95.84,11.32,1,22.45.81,32.78,5.6,22,10.2,37.16,26.38,43.95,50.08,1.31,4.6-.49,4.93-3.92,4.69-7-.51-13.92-1.54-20.87-1.46-16.54.22-30.16,8.28-43.21,17.37C383.12,484.1,374.39,490.61,364.94,497.45Z"/><path class="cls-1" d="M86.71,583.6c-.6-10.22,6-17.24,17.4-18,14.92-.95,27.44,5.18,38.91,14,.91.69,2,2.35,1.72,3.18-2.05,6.72.55,12.55,3.57,18.07,2.4,4.38,1.17,7-2.45,9.67-9.86,7.23-20.9,8-32.32,5.74a54.09,54.09,0,0,1-14-4.7c-10.07-5.15-11.43-15.12-12.65-25C86.76,585.6,86.77,584.59,86.71,583.6Z"/><path class="cls-1" d="M114.94,451.32c1.54.5,3.36.58,4.44,1.52,7.73,6.8,15.63,13.45,22.83,20.77,6.52,6.63,7.14,16,8.8,24.51,2.54,13,4.66,26.19,6.21,39.38a452.41,452.41,0,0,1,2.93,45.59c-10.22-14.75-17.88-30.58-24.54-46.9C128.47,518.7,113.55,457.82,114.94,451.32Z"/><path class="cls-1" d="M147.49,466.24c-12.27-8.74-24-16.56-35-25.34-2.68-2.14-3.41-7.35-4-11.3a120.11,120.11,0,0,1-1.16-17.39,7.42,7.42,0,0,1,2.16-5c10.48-9.39,22.5-15.9,36.51-18.25a63.06,63.06,0,0,1,9.44-.39c2.83,0,3.16,1.41,2.54,3.94-3.42,14-7.32,28-9.77,42.19-1.46,8.41-.54,17.24-.68,25.87C147.46,462.29,147.49,464.06,147.49,466.24Z"/><path class="cls-1" d="M391.13,115.37c.87-7.78,1.32-15.78,2.79-23.59,1.42-7.58,6.39-9.57,12.74-5.26a30.84,30.84,0,0,1,8.63,8.78c11,17.49,15.07,36.34,9.51,56.62a45.93,45.93,0,0,1-5,11.33c-3.44,5.72-9.11,6.21-13.8,1.5-7.14-7.15-9.95-16.49-12-25.9C392.41,131.25,392.07,123.37,391.13,115.37Zm29.08,6.5c-.85-3.53-1.31-7.23-2.67-10.55-1.54-3.73-4.57-6.21-9-5.91s-6.43,3.32-7.28,7.13c-1.73,7.77.3,14.9,4.64,21.34,2.15,3.2,5.23,3.39,8.16.86A16.74,16.74,0,0,0,420.21,121.87Z"/><path class="cls-1" d="M97.73,195.35c12.66,8.14,22.67,17.91,27.79,32.59l16.85-15.4c5.58,19-2.32,35.76-2.9,53-10.74.23-14.12-4.12-13.8-16.87-3.77-1.9-7.63-3.48-11.09-5.68-6.52-4.14-7.46-11.37-2.91-17.54a7.41,7.41,0,0,0,1.38-5.38c-.27-1.11-2.64-2.24-4.19-2.44C98.14,216.2,92.59,206,97.73,195.35Z"/><path class="cls-1" d="M85.24,92.53c-9.33-9.38-9.54-9.49-14-7.07,1.31.81,2.32,1.51,3.39,2.09,7,3.78,11,11.38,9.44,19.2A89.88,89.88,0,0,1,79.59,121c-2.3,6-5.23,6.79-9.82,1.94-6.72-7.11-13-14.65-19.1-22.32a100.77,100.77,0,0,1-9.21-14.22c-3.39-6.2-2.28-8.37,4.38-10.46C54,73.37,62,72.79,70.32,75.38S85.06,85.22,85.24,92.53ZM49.11,80.63c15.94,2.23,23,12.56,24.46,29,3-9.73-1.44-19.25-11.34-26.67C56.53,78.72,53,78.08,49.11,80.63Z"/><path class="cls-1" d="M385,298.4c-14.64-1.13-14.68.12-10.37-13.94a38.79,38.79,0,0,1,4.65-9.85c11.33-17.23,29.8-15,42.54-3.91.25.22.47.47.71.71,7.6,7.61,7.24,10.65-2.3,16.39C409.16,294.43,397.26,298.25,385,298.4Zm18-25.51c-7.3-2-22.17,8-22.93,14.72-.11,1,1.31,2.21,2.58,4.18C385.8,280.36,394.6,276.94,403,272.89Z"/><path class="cls-1" d="M388.27,90.67c-1.52,26.67-5.16,52.63,12.66,75C387,159.4,375,151.27,370.53,136,366,120.42,376,103.05,388.27,90.67Z"/><path class="cls-1" d="M356.14,570.21c1.85-15.29,3.67-30.35,5.49-45.42l1.3-.25c1.49,4.6,3.36,9.11,4.38,13.81,1.94,8.9,3.45,17.9,5,26.87.66,3.76.12,6.14-4.9,5.12C364,569.64,360.23,570.21,356.14,570.21Z"/><path class="cls-1" d="M49,351.72c1.14,5.43-.13,9-4.51,11.54-8.06,4.68-15.94,9.68-24.07,14.24-1.13.64-3.21-.4-4.86-.66.42-1.88.21-4.73,1.36-5.48,8.35-5.43,17-10.43,25.52-15.58C44.43,354.58,46.39,353.34,49,351.72Z"/><path class="cls-1" d="M164.54,287.87c-.76,1.88-.89,3.56-1.68,4C149,299,137.57,310.46,122.2,316.17,122.59,311.16,155.61,289.35,164.54,287.87Z"/><path class="cls-1" d="M126.53,319.63c4.65-1.07,6.5,2.39,7.78,6.06,1.72,4.94-2.91,13.35-9.06,16.53C125.67,334.78,126.08,327.56,126.53,319.63Z"/><path class="cls-1" d="M117.49,309.79l27.17-21.25c-.44,2.23-.17,4.86-1.24,5.63-7.77,5.6-15.79,10.85-23.81,16.1C119.13,310.59,118,309.92,117.49,309.79Z"/><path class="cls-1" d="M405.45,313.59c-1.15-1.55-2.43-3-3.44-4.66-4.65-7.62-4.55-7.81,4.94-9.72v14.05Z"/><path class="cls-1" d="M3.72,386.35c.4-4.63,4.3-5.9,7.43-7.75.22-.14,2.1,1.44,2,2.1C12.92,383.34,7.27,386.68,3.72,386.35Z"/><path class="cls-1" d="M407.18,315.75c1.38,2.57,2.74,4,2.69,5.39,0,.87-2.26,2.44-3.32,2.3s-3.06-2-3-2.92C403.72,319.18,405.37,318,407.18,315.75Z"/><path class="cls-1" d="M38.6,125.61c-1.85,1.37-3.55,3-3.82,2.78a9.09,9.09,0,0,1-2.92-3.81c-.19-.52,1.83-2.57,2.11-2.43A29,29,0,0,1,38.6,125.61Z"/><path d="M208.28,115.64c-12.21-13.12-16.84-12.81-30.93-1-1.36-3.1-.24-5.34,4.84-9.71,6.67-5.72,14.54-6.13,22.47-1,2.11-6.85,3.62-14.54,11.49-16.88A89.58,89.58,0,0,1,236,83.72c4.32-.26,9.81,5.62,10.39,9.74-7.15-6.17-15.33-7-23.9-4.93-7.93,1.87-13.06,9.87-13,19.12C209.57,109.89,208.86,112.13,208.28,115.64Z"/><path d="M400.69,202.94c-.89,1.78-1.5,3.78-2.71,5.29-2,2.45-4.34,4.58-6.53,6.85-3.87,4-6.74,7.77-6.33,14.42.69,11.17-15.49,23-27.78,19.91a35.09,35.09,0,0,1,4.52-1.71C370.59,246.08,376.61,241,380,233c1-2.39.78-5.29,1.13-8L360,228.15,359,226c1.47-.94,2.88-2.59,4.42-2.72,12.16-1.05,21.45-7.29,29.63-15.75,1.94-2,4.09-3.8,6.14-5.7Z"/><path d="M324.91,157.62c-1.21-9.43.18-19.37-10.93-24.06-9.87-4.17-18.05-.37-26.42,4.66.91-6.45,11.2-11.53,21.91-11,9.15.46,17.59,7.46,19.91,16.87C331,150.76,329.8,154.79,324.91,157.62Z"/><path d="M346.1,155.57c1.35-2.25,2.31-3.54,3-5,2.32-5,5.41-9.93,6.61-15.24,1.76-7.82-1.36-14.27-8.4-18.67-1.11-.7-1.58-2.44-2.35-3.69,1.48-.24,3.25-1.13,4.39-.61,7.41,3.39,11.27,9.33,12,17.48C362.37,141.47,356.72,151.86,346.1,155.57Z"/><path d="M280.93,107.21c-2.61-3-2.32-7.86.72-11.39,4.49-5.21,13.37-7.17,18.58-4.09,5.39,3.18,6.49,7.81,3.1,17-1.16-2.63-2.11-4.1-2.46-5.7-1.64-7.43-6.08-9.32-11.88-4.57C286.06,100.91,283.76,104.1,280.93,107.21Z"/><path d="M418.14,192.86c2.62,1,4.53,1.13,5.66,2.15,5.14,4.6,7.81,10.34,6.44,17.35-1.22,6.29-5.66,9.64-11.52,11.07a40.93,40.93,0,0,1-9.83.92c-1,0-2.06-1.49-3.09-2.3,1.13-.94,2.15-2.44,3.41-2.69,2.06-.4,4.3.17,6.44,0,9.45-.53,13.3-5.72,10.15-14.65C424.46,201,421.37,197.76,418.14,192.86Z"/><path d="M127,154.62c-4.47.37-6.05-2.15-7.16-5-2.47-6.28-1.09-12.08,2.75-17.38,4.93-6.82,15.53-10.95,21.75-8.54a13.84,13.84,0,0,1,2.25,1.5C125.79,126.68,114.43,141.8,127,154.62Z"/><path d="M198.87,477.88c.76,2.48,1.48,5,2.29,7.43,5.07,15.47,10.42,30.86,15.18,46.43,5.58,18.21,19,26.77,36.34,31.1,2,.51,3.8,2.1,5.37,4-7.05,2.23-13.53.13-19.17-2.78s-10.58-7.59-15.48-11.88c-7.62-6.66-10.22-16.12-13.16-25.29-4.12-12.82-8.21-25.65-12.07-38.55-.95-3.17-.94-6.62-1.37-9.94Z"/><path d="M291.4,539.11c-19.06,1.45-37.56-.14-53.16-13C225,515.2,218.08,500.2,211.85,484.9l1.77-1.18c2.52,3.83,5.07,7.65,7.54,11.5a25.19,25.19,0,0,1,2.41,4.37c5.86,14.75,18,23.56,31.24,30.11,7.29,3.59,16.37,3.56,24.65,5.12,4.09.77,8.21,1.45,12.31,2.17Z"/><path d="M303.45,383.4c-3.64,3-7.39,5.9-10.91,9.05-13.26,11.86-26.36,23.89-39.7,35.65-3.64,3.21-7.08,7.13-12.85,6.74-6.82-.45-11.46-4-13.25-10.68-1.33-4.91-2.76-9.79-4.18-14.77,3.28.33,6.42,1.82,7.44,6.21.61,2.59,1,5.24,1.73,7.81,1.86,6.73,6.9,8.95,12.48,4.79,9.32-6.93,18.23-14.43,27.28-21.72s18.05-14.64,27.14-21.87a22.36,22.36,0,0,1,4.24-2.11Z"/><path d="M358.12,589.63h45.61l.54,1.46c-1.8.76-3.6,2.18-5.39,2.17-12.66-.1-25.31-.46-38-.85-1,0-2.06-.84-3.09-1.29Z"/><path d="M383.1,561.65c14.51-.65,28.74-.19,40.68,9.45l-.32,1.86c-1.43-.12-3,.13-4.29-.41-10.59-4.56-21.39-8.07-33.11-8-1.17,0-2.35-.84-3.52-1.29Z"/><path d="M242.3,643.41c-3.44,2.08-4.91,1.46-6.33-1.89-1.88-4.43-4.76-8.44-7.12-12.68a4.58,4.58,0,0,1-.36-3.32C235.67,629.41,240,635.38,242.3,643.41Z"/><path d="M206.4,621.46l17,20.16C217.79,642.26,207.26,630.48,206.4,621.46Z"/><path d="M75.43,464.54c0-2.54-.37-3.76.06-4.55,4.17-7.77,9.74-14.3,17.73-18.32,4-2,5.68-.73,5.28,3.72-.62,6.88-4.37,12-9.08,16.45L87.7,461l7.72-14.52-1.49-1.26c-3.1,2.72-6.4,5.26-9.27,8.22S79.18,460,75.43,464.54Z"/><path d="M69,329.62c8.64-.59,7-9.94,11.29-12.26,6.93-3.77.52-11.46,6.08-14.77a14.52,14.52,0,0,1-3.65,17.22c-1.13,1-1.5,3.06-1.8,4.72C79.77,330.65,74.87,333.27,69,329.62Z"/><path d="M240.66,234.56c3.45,4.8,1.91,8.53,0,12.17-2.24,4.31-1.72,6.55,3,7.57,5.12,1.11,10.46,1.2,15.7,1.73,1.45.14,2.9.26,4.35.39l.18,1.54c-1.74.57-3.48,1.19-5.24,1.7-2.62.75-5.53,2.49-7.85,1.92A38.17,38.17,0,0,1,237.62,256c-2.92-2.09-3.57-5.84-1.12-9.8C238.47,243,239.13,239,240.66,234.56Z"/><path d="M156.55,220.94a38.1,38.1,0,0,1-1.36,5.35c-2.22,5.44-1.75,6.88,4.05,8.43,2.58.69,5.44.35,8.18.48a7.46,7.46,0,0,1-10.86,4.87C146,234.36,149.79,228.73,156.55,220.94Z"/><path d="M188.89,259.68c-2.08-2.26-3.44-3.75-5.13-5.6l-3.17,4.49-1.65-.25A50.9,50.9,0,0,1,180,250c.14-.5,3.58-.93,4.59-.18C187.35,251.89,189.92,254.48,188.89,259.68Z"/><path d="M186.14,200.12c-2.83,4.08-8.69,5-13.74,2a36.57,36.57,0,0,1-7.19-6.09c-4-4.16-8.21-3.42-10.33,2.09-.41,1.07-.24,2.41-.79,3.37a4.19,4.19,0,0,1-2.45,1.86c-.4.1-1.79-1.44-1.66-2,1.19-4.88,2.47-9.75,4.13-14.48.25-.72,2.9-1.34,3.95-.88,3.24,1.43,6.76,2.88,9.23,5.29,4.61,4.5,8.76,9.23,16.11,8.07C184.22,199.21,185.15,199.82,186.14,200.12Z"/><path d="M233.34,222.16c-.54-9.5,16.7-13.6,24.5-12.23,8.85,1.54,14.64,11.48,11.71,22-1.67-2.48-3.24-4-3.87-5.88-3-8.88-3.6-9.39-12.84-10.11C245.91,215.4,239.34,216.09,233.34,222.16Z"/><path d="M420.21,121.87a16.74,16.74,0,0,1-6.13,12.87c-2.93,2.53-6,2.34-8.16-.86-4.34-6.44-6.37-13.57-4.64-21.34.85-3.81,2.91-6.84,7.28-7.13s7.44,2.18,9,5.91C418.9,114.64,419.36,118.34,420.21,121.87Zm-4.5,0-.8-.7c-.36-1.93-.39-4-1.2-5.76s-2.36-2.88-3.59-4.3c-1.2,1.42-2.81,2.66-3.47,4.29a13.48,13.48,0,0,0-.67,5.84c.24,3.46.75,7.79,4.81,7.87C412.39,129.1,414.07,124.38,415.71,121.83Z"/><path d="M49.11,80.63C53,78.08,56.53,78.72,62.23,83c9.9,7.42,14.38,16.94,11.34,26.67C72.09,93.19,65.05,82.86,49.11,80.63Z"/><path d="M403,272.89c-8.36,4.05-17.16,7.47-20.35,18.9-1.27-2-2.69-3.16-2.58-4.18C380.79,280.87,395.66,270.92,403,272.89Z"/><path class="cls-1" d="M415.71,121.83c-1.64,2.55-3.32,7.27-4.92,7.24-4.06-.08-4.57-4.41-4.81-7.87a13.48,13.48,0,0,1,.67-5.84c.66-1.63,2.27-2.87,3.47-4.29,1.23,1.42,2.82,2.66,3.59,4.3s.84,3.83,1.2,5.76Z"/></g></g></svg>